<svg xmlns="http://www.w3.org/2000/svg" width="36" height="36" viewBox="0 0 36 36">
  <g id="Language" transform="translate(-1665 -25)">
    <circle id="Ellipse_1" data-name="Ellipse 1" cx="18" cy="18" r="18" transform="translate(1665 25)" fill="rgba(255,255,255,0.15)"/>
    <path id="Icon_metro-earth" data-name="Icon metro-earth" d="M12.571,1.928a10,10,0,1,0,10,10,10,10,0,0,0-10-10Zm0,18.75a8.721,8.721,0,0,1-3.462-.712l4.554-5.123a.625.625,0,0,0,.158-.415V12.553a.625.625,0,0,0-.625-.625c-2.207,0-4.535-2.294-4.558-2.317A.625.625,0,0,0,8.2,9.428H5.7a.625.625,0,0,0-.625.625V13.8a.625.625,0,0,0,.346.559l2.154,1.077v3.67A8.755,8.755,0,0,1,4.663,8.178H6.946a.625.625,0,0,0,.442-.183l2.5-2.5a.625.625,0,0,0,.183-.442V3.541a8.775,8.775,0,0,1,6.334.52c-.081.068-.16.14-.235.216a3.75,3.75,0,0,0,2.649,6.4q.093,0,.186,0a14.677,14.677,0,0,1-.164,7.272.623.623,0,0,0-.016.1,8.723,8.723,0,0,1-6.253,2.63Z" transform="translate(1670.429 31.072)" fill="#1d1d1d"/>
  </g>
</svg>
