<svg xmlns="http://www.w3.org/2000/svg" width="953.202" height="142.993" viewBox="0 0 953.202 142.993">
  <g id="Group_553" data-name="Group 553" transform="translate(-434 -3727.391)">
    <g id="Group_534" data-name="Group 534" transform="translate(434 3729.723)">
      <path id="Path_411" data-name="Path 411" d="M1504.843,446.477a14.565,14.565,0,0,0-3.166-7.654c-3.1-4.069-7.271-6.772-11.761-9.019A77.869,77.869,0,0,0,1464.6,422.6c-.606.11-1.221.332-1.782-.139a.591.591,0,0,0-.639-.16,2.265,2.265,0,0,1-1.757-.079,3.4,3.4,0,0,0-1.879-.23,6.955,6.955,0,0,1-3.237-.087,3.523,3.523,0,0,0-1.912-.208,42.587,42.587,0,0,1-6.646,0,2.528,2.528,0,0,0-1.617.2,6.773,6.773,0,0,1-3.233.093,3.313,3.313,0,0,0-1.852.2,2.9,2.9,0,0,1-2.083.114.762.762,0,0,0-.7.2,1.425,1.425,0,0,1-1.417.092,74.135,74.135,0,0,0-11.38,2.085c-7.584,1.943-14.865,4.618-21.14,9.459-3.728,2.877-6.8,6.274-7.726,11.123.085.389.3.788-.082,1.145a2.568,2.568,0,0,0-.041,2.207c.428.456.219.969.135,1.471,1.057,5.234,4.484,8.8,8.617,11.7,9.652,6.771,20.722,9.53,32.218,10.97a1.585,1.585,0,0,1,1.491.1c.471.373,1.015.217,1.539.211a2.12,2.12,0,0,1,1.748.078,59.312,59.312,0,0,0,12.117.334,11.583,11.583,0,0,1,4.292-.121,1.538,1.538,0,0,0,1.244-.185,2.878,2.878,0,0,1,2.088-.111,1.735,1.735,0,0,0,1.257-.169c.557-.465,1.169-.238,1.772-.14a1.218,1.218,0,0,0,.972-.224c.359-.359.758-.166,1.148-.08a66.868,66.868,0,0,0,7.982-1.455c7.715-1.827,15.154-4.365,21.679-9.022,4.569-3.26,8.329-7.149,9.07-13.089A5.711,5.711,0,0,1,1504.843,446.477Zm-1.773,2.288a13.721,13.721,0,0,1-4.06,8.223c-4.5,4.784-10.238,7.545-16.294,9.72a73.514,73.514,0,0,1-14.72,3.7,3.584,3.584,0,0,0-.705.247,1.207,1.207,0,0,1-1.161.071.587.587,0,0,0-.634.192c-.467.388-.979.2-1.483.113a2.034,2.034,0,0,0-1.222.227,2.688,2.688,0,0,1-1.809.073.679.679,0,0,0-.707.2,3.88,3.88,0,0,1-2.322.1,8.371,8.371,0,0,0-2.813.221c-2.687.411-5.39.1-8.085.168a3.533,3.533,0,0,1-2.054-.175,8.14,8.14,0,0,0-2.814-.215,3.228,3.228,0,0,1-2.054-.077,1.16,1.16,0,0,0-.972-.219,2.1,2.1,0,0,1-1.509-.049,3.057,3.057,0,0,0-1.524-.258c-.5.065-1.022.328-1.47-.143l-.353-.135c-.485.064-.977.23-1.431-.107-3.666-.816-7.372-1.45-10.987-2.491a56.706,56.706,0,0,1-14.461-6.11c-4.316-2.7-8.262-5.945-9.833-11.163-.142-.473-.295-.943-.442-1.415a6.021,6.021,0,0,1-.029-3.583c1.317-5.641,5.142-9.3,9.8-12.262,6.527-4.147,13.765-6.466,21.276-8.019,2.739-.566,5.5-1,8.257-1.5a1.829,1.829,0,0,1,1.491-.089,1.858,1.858,0,0,0,1.249-.182,3.96,3.96,0,0,1,2.39-.118,1.548,1.548,0,0,0,1.244-.181,8.463,8.463,0,0,1,3.6-.114h7.284a9.159,9.159,0,0,1,3.61.093,2.108,2.108,0,0,0,1.537.2,3.253,3.253,0,0,1,2.052.083,2.588,2.588,0,0,0,1.584.226c.5-.068,1.023-.335,1.471.146a.58.58,0,0,0,.652.15c.5-.091,1.015-.268,1.488.1,4.068.842,8.179,1.484,12.17,2.685,7.128,2.146,13.987,4.832,19.556,9.991C1501.206,440.228,1503.513,443.9,1503.07,448.765Z" transform="translate(-1395.244 -421.652)" fill="#aeaeae"/>
      <path id="Path_412" data-name="Path 412" d="M1434.812,444.477a11.415,11.415,0,0,1-1.614,2.58,122.424,122.424,0,0,1-14.539-9.449c-1.133-.829-1.5-.527-2.106.464-3.551,5.777-3.018,12.091,1.576,18.048a19.171,19.171,0,0,0,3.124,3.4c.807.645.858,1.1.195,1.908-1.209,1.474-1.168,1.533-2.588.162-3.77-3.637-6.62-7.8-7.526-13.093-.943-5.518.923-10.184,4.248-14.433.28-.357.59-.69.86-1.054.328-.438.6-.516,1.093-.134A186.775,186.775,0,0,0,1434.812,444.477Z" transform="translate(-1392.619 -419.833)" fill="#aeaeae"/>
      <path id="Path_413" data-name="Path 413" d="M1454.977,447.421q-.815-1.338-1.631-2.674a153.533,153.533,0,0,0,16.6-11c1.106-.839,1.68-.674,2.47.338a18.521,18.521,0,0,1,4.017,8.783c-.1.5-.29,1.015.122,1.477.543,3.4-.4,6.529-1.8,9.558a28.78,28.78,0,0,1-5.822,8c-.6.612-.936.515-1.379-.085a4.878,4.878,0,0,0-.826-.879c-.543-.444-.558-.751-.014-1.286a23.783,23.783,0,0,0,6.659-11.068c.432-.457.227-.972.135-1.477a15.017,15.017,0,0,0-1.812-8.549c-.6-1.121-.994-1.506-2.234-.578A131.933,131.933,0,0,1,1454.977,447.421Z" transform="translate(-1385.62 -419.736)" fill="#aeaeae"/>
      <path id="Path_414" data-name="Path 414" d="M1432.6,446.8l1.621-2.667a1.067,1.067,0,0,1,1.007.08,41.778,41.778,0,0,0,7.909,3.141,2.483,2.483,0,0,0,2.429-.015,61.8,61.8,0,0,0,7.135-2.643,1.4,1.4,0,0,1,1.149-.148l1.586,2.6a29.314,29.314,0,0,1-9.745,3.558,7.183,7.183,0,0,0-2.71,0A31.967,31.967,0,0,1,1432.6,446.8Z" transform="translate(-1389.057 -417.943)" fill="#aeaeae"/>
      <path id="Path_415" data-name="Path 415" d="M1464.591,456.693c-1.765-2.651-3.284-5.465-4.9-8.211a3.67,3.67,0,0,0-1.631-2.674q-3.831-6.2-7.659-12.4c-1.683-2.744-3.335-5.507-5.057-8.353-1.963,3.153-3.793,6.144-5.676,9.1-2.388,3.757-4.56,7.651-7.142,11.286a3.7,3.7,0,0,0-1.615,2.58c-1.785,3.462-4.107,6.6-6.009,9.992l2.591,1.616q.371-.559.74-1.123c1.914-2.928,3.553-6.031,5.64-8.85.994-.57,1.242-1.7,1.888-2.527-.089-.048-.178-.092-.267-.139l9.818-16.055c3.366,5.65,6.588,11.06,9.811,16.469l-.253.118c.018.032.037.063.055.093.6.791.807,1.876,1.785,2.385,1.7,2.759,3.429,5.5,5.088,8.285.565.951.991,1.442,2.134.614C1464.837,458.246,1465.442,457.971,1464.591,456.693Z" transform="translate(-1390.332 -421.088)" fill="#aeaeae"/>
      <g id="Group_533" data-name="Group 533" transform="translate(33.188 40.551)">
        <path id="Path_416" data-name="Path 416" d="M1448.416,457.946q.119-.43.24-.86c.188-.666.756-.683,1.214-.53.668.224.1.663.007.967a10.466,10.466,0,0,1-.611,1.338,1.049,1.049,0,0,0-.393,1.163c-.272.747-.572,1.485-.807,2.243-.184.6-.636.521-1.083.544a.736.736,0,0,1-.859-.605c-.3-.945-.687-1.86-1.039-2.788a1.034,1.034,0,0,0-.388-1.162,3.422,3.422,0,0,1-.34-.648c-.1-.358-.677-.824.085-1.064a.877.877,0,0,1,1.182.62c.445,1.258.919,2.506,1.383,3.764.6-.11.315-.76.719-.909A2.908,2.908,0,0,0,1448.416,457.946Z" transform="translate(-1420.347 -456.434)" fill="#aeaeae"/>
        <path id="Path_417" data-name="Path 417" d="M1450.9,460.346c-.219-3.833-.219-3.833,3.531-3.82h.752c.365,0,.722.009.739.514.017.525-.345.522-.708.522-.6,0-1.209.042-1.807-.007-1.342-.111-1.647.4-1,1.553.942.514,2.05-.141,3.182.446-1.2.712-2.469-.073-3.488.561l.052-.048a1.419,1.419,0,0,0,.011,1.743l-.057-.05c.654.553,1.422.125,2.127.244.493.083,1.053-.142,1.48.413a24.3,24.3,0,0,1-4.2.169c-.477-.009-.477-.4-.5-.763A4.072,4.072,0,0,0,1450.9,460.346Z" transform="translate(-1419.225 -456.426)" fill="#aeaeae"/>
        <path id="Path_418" data-name="Path 418" d="M1433.359,460.218c.206.07.418.5.571-.11.22-.88.559-1.73.849-2.592.337-.5.676-.963,1.4-.781.786.2.61.822.591,1.335a22.793,22.793,0,0,1-.206,4.684c-.944-1.522-.181-3.02-.808-4.251-.727.61-.6,1.554-.876,2.335a8.712,8.712,0,0,1-.688,1.6c-.5.373-.846-.01-1.216-.261-.413-.442-.337-1.051-.539-1.566.241-.249-.1-.758.375-.891C1433.239,459.6,1432.97,460.272,1433.359,460.218Z" transform="translate(-1422.27 -456.398)" fill="#aeaeae"/>
        <path id="Path_419" data-name="Path 419" d="M1433.67,460.25c-.394-.077-.755-.078-.917.389a3.4,3.4,0,0,1-.372-1.752,1.184,1.184,0,0,1-.123-.579c-.019-.316-.093-.647-.472-.641-.4.006-.424.366-.438.667-.041.944.037,1.892-.03,2.836a23.094,23.094,0,0,1,.147-3.138c.04-.153.234-.142.355-.008a.225.225,0,0,1,.007.268c.008,1.252.011,2.5.026,3.753,0,.438-.033.754-.621.771-.725.02-.649-.433-.649-.886,0-1.451-.01-2.9.008-4.355,0-.451-.208-1.1.634-1.046.64.041,1.456-.322,1.7.7C1433.166,458.239,1433.42,459.244,1433.67,460.25Z" transform="translate(-1422.58 -456.43)" fill="#aeaeae"/>
        <path id="Path_420" data-name="Path 420" d="M1456.835,457.3l.031-.58a18.619,18.619,0,0,1,5.123-.037l.013.009c.23.494.02.72-.473.757-.43.03-.864-.019-1.294.04-.5,1.3-.089,2.656-.237,3.977-.044.4.234,1.048-.449,1.07-.6.019-.569-.584-.59-1.026-.059-1.2.074-2.406-.083-3.6C1458.41,456.993,1457.432,457.788,1456.835,457.3Z" transform="translate(-1418.23 -456.426)" fill="#aeaeae"/>
        <path id="Path_421" data-name="Path 421" d="M1435.43,458.532c1.032,1.033.335,2.4.87,3.569a29.469,29.469,0,0,0-.044-4.343c-.253-1.687-1.176-.265-1.807-.212-.144-1.254.758-.988,1.476-1.033.957-.061.7.636.705,1.124.022,1.449.012,2.9.006,4.347,0,.385.085.8-.549.829-.67.033-.709-.336-.7-.836C1435.416,460.829,1435.418,459.681,1435.43,458.532Z" transform="translate(-1421.94 -456.429)" fill="#aeaeae"/>
        <path id="Path_422" data-name="Path 422" d="M1450.9,459.8c.642,2.117.642,2.127,3.047,2.105a2.525,2.525,0,0,0,1.451-.142c-1.057-.535-2.325.373-3.294-.548,1.052.026,2.1.044,3.152.08.322.011.739-.117.771.437s-.34.514-.7.514c-1.252,0-2.506-.028-3.758.012-.633.02-.771-.263-.73-.81S1450.881,460.353,1450.9,459.8Z" transform="translate(-1419.224 -455.883)" fill="#aeaeae"/>
        <path id="Path_423" data-name="Path 423" d="M1458.744,457.517c.6,1.493-.081,3.12.494,4.959.783-1.911-.14-3.7.636-5.276.177.1.185.21.027.333,0,1.36-.057,2.723,0,4.08.042.963-.259,1.317-1.2.966A13.562,13.562,0,0,1,1458.744,457.517Z" transform="translate(-1417.956 -456.314)" fill="#aeaeae"/>
        <path id="Path_424" data-name="Path 424" d="M1431.737,458.214c-.775.5-.191,1.246-.305,1.866a7.491,7.491,0,0,1-.317,1.924c0-1.475,0-2.949,0-4.424a.55.55,0,0,1,.524-.6c.428-.055.623.213.8.537.256.473-.171.857-.149,1.3Z" transform="translate(-1422.49 -456.353)" fill="#aeaeae"/>
        <path id="Path_425" data-name="Path 425" d="M1451.918,459.756c.868-.847,2.012-.063,3.186-.6-1.116-.058-2-.1-2.894-.156-.021,0-.054-.078-.05-.117a.422.422,0,0,1,.064-.133q1.36-.023,2.721-.047c.343-.007.573.085.578.494.006.428-.254.477-.584.484C1453.931,459.7,1452.925,459.73,1451.918,459.756Z" transform="translate(-1419.044 -456.065)" fill="#aeaeae"/>
        <path id="Path_426" data-name="Path 426" d="M1459.017,457.521q-.021,2.532-.043,5.062a8.285,8.285,0,0,1-.164-3.53c.045-1.209-.238-1.807-1.54-1.571a.34.34,0,0,1-.435-.286C1457.562,457.3,1458.361,456.934,1459.017,457.521Z" transform="translate(-1418.23 -456.318)" fill="#aeaeae"/>
        <path id="Path_427" data-name="Path 427" d="M1461.985,456.7l-5.123.037A11.883,11.883,0,0,1,1461.985,456.7Z" transform="translate(-1418.225 -456.44)" fill="#aeaeae"/>
        <path id="Path_428" data-name="Path 428" d="M1441.46,456.7a2.473,2.473,0,0,1-1.551.554C1440.1,456.145,1440.8,456.5,1441.46,456.7Z" transform="translate(-1421.033 -456.433)" fill="#aeaeae"/>
        <path id="Path_429" data-name="Path 429" d="M1447.894,457.737a1.62,1.62,0,0,1-.69,2.073A6.624,6.624,0,0,1,1447.894,457.737Z" transform="translate(-1419.825 -456.225)" fill="#aeaeae"/>
        <path id="Path_430" data-name="Path 430" d="M1427.281,457.279c-.515-.261-1.174-.1-1.625-.554C1426.366,456.415,1427.026,456.254,1427.281,457.279Z" transform="translate(-1423.394 -456.432)" fill="#aeaeae"/>
        <path id="Path_431" data-name="Path 431" d="M1459.7,457.621c-.009-.111-.017-.221-.027-.332.618-.209,1.531.476,1.854-.617.37.473.378.831-.328.893C1460.706,457.609,1460.2,457.6,1459.7,457.621Z" transform="translate(-1417.759 -456.402)" fill="#aeaeae"/>
        <path id="Path_432" data-name="Path 432" d="M1442.383,459.144c-.662-.186-.745-.587-.422-1.139C1442.093,458.388,1442.451,458.687,1442.383,459.144Z" transform="translate(-1420.724 -456.181)" fill="#aeaeae"/>
        <path id="Path_433" data-name="Path 433" d="M1448.217,459.685c-.367-.556-.245-.946.393-1.163C1448.694,458.982,1448.361,459.3,1448.217,459.685Z" transform="translate(-1419.691 -456.095)" fill="#aeaeae"/>
        <path id="Path_434" data-name="Path 434" d="M1425.434,457.339c-.028.514.249,1.16-.578,1.325A2.018,2.018,0,0,1,1425.434,457.339Z" transform="translate(-1423.527 -456.291)" fill="#aeaeae"/>
        <path id="Path_435" data-name="Path 435" d="M1452.035,461.308a1.088,1.088,0,0,1-.011-1.743Q1452.029,460.436,1452.035,461.308Z" transform="translate(-1419.098 -455.922)" fill="#aeaeae"/>
        <path id="Path_436" data-name="Path 436" d="M1444.608,458c.621.224.773.6.388,1.162C1444.867,458.778,1444.522,458.462,1444.608,458Z" transform="translate(-1420.257 -456.181)" fill="#aeaeae"/>
        <path id="Path_437" data-name="Path 437" d="M1444.192,461.752a25.154,25.154,0,0,0-1.152-2.385,1.042,1.042,0,0,1-.422-1.139c-.244-.532-.319-1.151-.81-1.555a1.921,1.921,0,0,0-1.551.554l-2.449,5.4c1.454.521,1.689-.379,1.915-1.289a3.409,3.409,0,0,1,2.963.042,6.848,6.848,0,0,1,.279.832c.169.851.885.663,1.3.514C1444.866,462.507,1444.293,462.025,1444.192,461.752Zm-3.891-1.47.2-.894c-.14-.485.147-.824.4-1.175.952.366.832,1.352,1.194,2.061A1.921,1.921,0,0,1,1440.3,460.282Z" transform="translate(-1421.381 -456.404)" fill="#aeaeae"/>
        <path id="Path_438" data-name="Path 438" d="M1439.947,459.768l1.8-.008A1.227,1.227,0,0,1,1439.947,459.768Z" transform="translate(-1421.027 -455.89)" fill="#aeaeae"/>
        <path id="Path_439" data-name="Path 439" d="M1440.548,457.992c.084.466-.275.781-.4,1.175C1439.794,458.61,1439.938,458.222,1440.548,457.992Z" transform="translate(-1421.025 -456.183)" fill="#aeaeae"/>
        <path id="Path_440" data-name="Path 440" d="M1427.6,457.249a1.877,1.877,0,0,0-1.625-.554c-.4.119-.326.46-.354.754-.146.463-.106,1.006-.578,1.325a9.548,9.548,0,0,0-1.239,2.939c-.076.277-.2.578.117.78.412.259.562-.228.849-.332l.612-.927a3.62,3.62,0,0,1,2.676.086l.536,1.152c.428.028,1.037.486,1.056-.448A29.767,29.767,0,0,0,1427.6,457.249Zm-1.909,3.031.019.024-.038-.034.02.009c-.4-.5.091-.787.289-1.143.446-.164.112-1.077.888-.924a1.338,1.338,0,0,1,.408,1.173c.062.308.125.617.188.924A2.062,2.062,0,0,1,1425.693,460.28Z" transform="translate(-1423.716 -456.402)" fill="#aeaeae"/>
        <path id="Path_441" data-name="Path 441" d="M1425.395,459.759l1.793.038A1.264,1.264,0,0,1,1425.395,459.759Z" transform="translate(-1423.438 -455.89)" fill="#aeaeae"/>
        <path id="Path_442" data-name="Path 442" d="M1425.746,458.786c-.09.389-.181.779-.271,1.168C1424.884,459.406,1425.131,459.053,1425.746,458.786Z" transform="translate(-1423.48 -456.052)" fill="#aeaeae"/>
        <path id="Path_443" data-name="Path 443" d="M1426.831,459.166c-.127-.394-.484-.709-.408-1.173C1427.1,458.2,1427.141,458.62,1426.831,459.166Z" transform="translate(-1423.269 -456.183)" fill="#aeaeae"/>
      </g>
    </g>
    <g id="Group_536" data-name="Group 536" transform="translate(951.839 3808.269)">
      <g id="Group_535" data-name="Group 535" transform="translate(104.49 0)">
        <path id="Path_444" data-name="Path 444" d="M1613.547,425.083c-2.472.5-3.376,1.622-3.289,3.234.124,2.266,2.616,6.585,3.807,8.511a52.873,52.873,0,0,0,7.279,9.2c2.219,2.192,3.6,2.667,5.976-.569a50.069,50.069,0,0,0,5.492-8.621,38.313,38.313,0,0,0,1.934-4.814c.624-2.075.4-3.911-1.631-5.263a5.232,5.232,0,0,1,2.936,4.652,16.809,16.809,0,0,1-.869,5.418,61.222,61.222,0,0,1-4.158,10.908,62.721,62.721,0,0,1-4.626,7.925c-3.67,5.051-7.195,3.419-11.323,0a43.069,43.069,0,0,1-7.294-7.909,60.035,60.035,0,0,1-6.011-10.94c-1.948-4.712-.433-7.124,1.973-8.654C1606.383,426.478,1610.343,425.526,1613.547,425.083Z" transform="translate(-1600.877 -424.654)" fill="#aeaeae" fill-rule="evenodd"/>
        <path id="Path_445" data-name="Path 445" d="M1611.077,435.939c3.823-.571,13.759-1.19,17.245.617a1.954,1.954,0,0,1,1.084,2.349q.523-.944,1.02-1.96a38.309,38.309,0,0,0,1.934-4.814c.624-2.075.4-3.911-1.631-5.263l-.009-.005a13.254,13.254,0,0,0-2.405-.909,36.415,36.415,0,0,0-7.408-1.121c-1.059-.078-2.165-.07-3.286-.066a50.28,50.28,0,0,0-6.46.427c-2.471.5-3.375,1.622-3.288,3.234C1607.977,430.356,1609.8,433.777,1611.077,435.939Z" transform="translate(-1598.492 -424.763)" fill="#aeaeae" fill-rule="evenodd"/>
      </g>
      <path id="Path_446" data-name="Path 446" d="M1630.062,468.971c2-.241,3.686-1.258,4.256-4.276a17.428,17.428,0,0,0-.228-6.86,4.075,4.075,0,0,0-1.186-2.024,5.44,5.44,0,0,0-6.381.152c-.217.174-.406.252-.406-.054l-.035-6.44-3.568.059.016,18.461c1.529,1.029,5.734,1.2,7.531.982Zm-95.67-.351c.75,0,.6.067,1.059-.559,3.1-4.253,6.035-13.321,5.994-18.382a15.865,15.865,0,0,0-4.363.527c-1.4,8.3-2.63,10.489-4.87,14.722h0c-2.24-4.233-3.469-6.425-4.872-14.722a15.865,15.865,0,0,0-4.363-.527c-.04,5.061,2.893,14.128,5.994,18.382.457.626.31.559,1.059.559Zm102.539-13.082.348,3.239c1.412-.134,2.567-.506,4.047-.613,2.231-.079,3.654-.133,3.584,1.483-1.667-.007-3.347,0-5.079.015-2.1.017-3.85,1.017-3.619,5.29.279,5.131,6.371,4.755,9.153,2.7V468.8h3.234c-.086-5.238.294-10.741-.65-12.228-1.8-2.841-7.709-1.8-11.016-1.036Zm-76.177,12.647q-.179-1.585-.359-3.171a31.044,31.044,0,0,1-5.447.592c-1.7-.055-2.338-.873-2.33-3.3a3,3,0,0,0,2.254,1.057c2.224.024,4.3.06,6.495-.02.1-4.044.448-7.57-3.591-8.432a11.979,11.979,0,0,0-5.375.119,3.906,3.906,0,0,0-3.039,3.014c-.916,3.171-.657,7.87,1.382,9.682,2.341,2.08,7.061,1.339,10.011.461Zm-6.5-10.142h1.784a1.624,1.624,0,0,1,1.619,1.619v.718h-5.022v-.718a1.623,1.623,0,0,1,1.619-1.619Zm114.064,10.729.111-5.938c.007-.364.33.125.418.27a24.7,24.7,0,0,0,4.011,5.211c.492.492.593.457,1.467.457h3.742a20.639,20.639,0,0,1-5.7-6.8c-.293-.63-.278-.559.139-1.15.542-.625,1.224-1.469,1.978-2.327l3.188-3.753c.015-.03.03-.059.044-.087h-3.391c-.621,0-.6-.1-1.038.378-1.291,1.394-2.77,3.023-3.964,4.341a2.91,2.91,0,0,1-.472.39c-.491.353-.4.259-.4-.248l-.032-10.085-3.611.025-.046,19.319Zm-83.825-.464-.318-3.149a25.543,25.543,0,0,1-5.082.389c-1.732-.193-1.944-1.109-1.961-2.516-.009-.85-.034-1.809.015-2.649a1.864,1.864,0,0,1,1.946-2.068,25.75,25.75,0,0,1,5.082.389l.318-3.149c-6.209-1.467-10.08-.735-10.948,4.079a21.645,21.645,0,0,0,.147,5.269c1.1,4.209,4.892,4.8,10.8,3.407ZM1565,454.855h-2.271q-.01,1.668-.019,3.336l2.29.016c0,1.128,0,2.325-.007,3.458,0,1.192-.014,2.31-.007,3.281a4.1,4.1,0,0,0,1.079,3.265,2.75,2.75,0,0,0,1.412.474,11.441,11.441,0,0,0,4.366-.307q-.058-1.432-.115-2.865c-1.4.139-3.106.439-3.1-.275,0-2.435,0-4.589,0-7.022l3.3-.015q0-1.662-.007-3.328l-3.289-.015q0-1.66,0-3.317l-3.632.005q0,1.654,0,3.309Zm-22.168,13.916,3.529.067.129-13.93-3.673.017.015,13.845Zm48.1-14.1h3.167a4.511,4.511,0,0,1,4.5,4.5v5.318a4.511,4.511,0,0,1-4.5,4.5h-3.167a4.51,4.51,0,0,1-4.5-4.5v-5.318a4.51,4.51,0,0,1,4.5-4.5Zm.692,3.376a1.624,1.624,0,0,0-1.619,1.619v4.326a1.623,1.623,0,0,0,1.619,1.618h1.784a1.623,1.623,0,0,0,1.619-1.618v-4.326a1.623,1.623,0,0,0-1.619-1.619Zm12.867,10.728q.048-5.324.1-10.647,1.326,0,2.653,0a1.3,1.3,0,0,1,1.4,1.213v.49l.008,8.949h3.564l.1-10.659,2.908,0a1.263,1.263,0,0,1,1.417,1.3l.013,9.358h3.53l.121-10.065c.025-2.141-1.154-3.909-3.576-3.887l-2.31.023a2.975,2.975,0,0,0-2.492.964c-.535.555-.274.561-.763.04a3.363,3.363,0,0,0-2.665-1.025h-1.628a3.167,3.167,0,0,0-2.362,1.1c-.591.6-.521.794-.521-.142v-.871h0l-3.036.013q.008,6.923.015,13.845Zm49.976,0q.049-5.324.1-10.647,1.344,0,2.689,0a1.3,1.3,0,0,1,1.418,1.286q.006,4.68.011,9.365h3.614q.044-4.658.089-9.313c.023-2.46-.943-4.637-3.859-4.637h-1.653a3.192,3.192,0,0,0-2.323,1.031c-.62.6-.6.926-.6-.027V454.9h-3.085c.005,4.614.016,9.252.02,13.868Zm-13.429-6h3.933v2.055c0,.853-2.484.891-4.063.854-1.157-.027-1.022.005-1.073-1.026-.017-.382,0-.765,0-1.15,0-.789.162-.734,1.2-.734Zm-10.242-2.483v3.82a1.624,1.624,0,0,1-1.619,1.619h-1.821c-1.273,0-1.281.017-1.281-1.795v-4.1c0-1.812.008-1.795,1.281-1.795h1.821a1.624,1.624,0,0,1,1.619,1.619Z" transform="translate(-1522.977 -416.344)" fill="#aeaeae" fill-rule="evenodd"/>
    </g>
    <g id="Group_539" data-name="Group 539" transform="translate(730.017 3822.055)">
      <rect id="Rectangle_144" data-name="Rectangle 144" width="7.592" height="34.204" transform="translate(32.36 7.404)" fill="#aeaeae"/>
      <g id="Group_537" data-name="Group 537" transform="translate(0 7.284)">
        <path id="Path_447" data-name="Path 447" d="M1734.709,461.282c-.844-2.218-8.55-22.186-8.55-22.186l-8.243.006.142.365,13.067,33.84h7.148l13.154-34.2h-8.268s-7.105,18.5-8.45,22.181" transform="translate(-1649.047 -438.982)" fill="#aeaeae"/>
        <path id="Path_448" data-name="Path 448" d="M1717.233,466.15c-1.757,1.219-4.468,1.853-8.235,1.853h-1.313V444.4h1.069c4.971.007,6.7.389,8.62,1.757,2.516,1.873,3.974,5.528,3.974,10.045s-1.508,8.167-4.116,9.948m6.015-23.687c-3.2-2.433-7.083-3.367-13.936-3.363h-9.207v34.2h8.717c6.781,0,10.336-.686,13.43-2.618,4.412-2.784,6.705-7.86,6.7-14.532,0-6.135-1.923-10.811-5.706-13.693" transform="translate(-1656.315 -438.98)" fill="#aeaeae"/>
        <path id="Path_449" data-name="Path 449" d="M1687.329,467.459c-1.388.6-3.686.527-7.708.527h-3.015v-8.832h3.074a29.279,29.279,0,0,1,7.428.611,3.664,3.664,0,0,1,2.919,3.819c0,2.342-1.117,3.195-2.7,3.875M1676.615,444.4h2.376c3.9,0,6.509-.132,7.961.608a3.769,3.769,0,0,1,.059,6.791c-1.188.636-4.2.936-7.714.932h-2.682Zm13.711,11.352c4.288-1.181,6.43-3.729,6.4-7.566a8.1,8.1,0,0,0-4.918-7.587c-2.616-1.194-5.372-1.584-11.227-1.583h-11.576v34.2h12.945c5.475,0,8.225-.442,10.724-1.691a8.616,8.616,0,0,0,4.968-7.87c.027-4.15-2.48-6.808-7.318-7.907" transform="translate(-1669.007 -439.015)" fill="#aeaeae"/>
      </g>
      <path id="Path_450" data-name="Path 450" d="M1756.224,440.221l0,18.894,3.959,0h3.632l0-18.9h-3.633" transform="translate(-1633.414 -431.239)" fill="#aeaeae"/>
      <g id="Group_538" data-name="Group 538" transform="translate(118.649 12.741)">
        <path id="Path_451" data-name="Path 451" d="M1753.268,442.89h3.795v11.442h-3.795Zm14.17,11.438-2.047,0V442.894h2.05c2.083,0,3.667,2.566,3.68,5.715.024,3.08-1.594,5.718-3.684,5.718" transform="translate(-1753.268 -442.89)" fill="#aeaeae"/>
      </g>
      <path id="Path_452" data-name="Path 452" d="M1765.934,480.615l-.01.006-22.675-22.616,22.688-22.618v.007l22.689,22.62Zm-24.225-22.61.2.2,23.121,23.056.908.905.908-.905,23.325-23.252-24.227-24.172" transform="translate(-1639.337 -433.842)" fill="#aeaeae"/>
      <path id="Path_453" data-name="Path 453" d="M1765.192,461.909,1754.259,451h-10.732l18.895,18.848.2.2,2.567,2.561L1786.869,451h-10.736" transform="translate(-1638.594 -426.839)" fill="#aeaeae"/>
    </g>
    <g id="Group_540" data-name="Group 540" transform="translate(852.428 3729.004)">
      <path id="Path_454" data-name="Path 454" d="M1859.407,442.468a8.987,8.987,0,0,0-5.019,1.612,10.762,10.762,0,0,0-3,3.141,10.093,10.093,0,0,0-1.511,5.969,9.021,9.021,0,0,0,1.21,4.26,10.18,10.18,0,0,0,5.715,4.819,9.291,9.291,0,0,0,7.744-.893,9.946,9.946,0,0,0,2.353-1.856.755.755,0,0,1,.616-.264c1.9.011,3.81,0,5.715.006.31,0,.32.019.2.288a13.26,13.26,0,0,1-3.084,4.362,15.869,15.869,0,0,1-4.229,2.813,15.524,15.524,0,0,1-5.058,1.343c-.272.025-.549.016-.823.023a6.562,6.562,0,0,1-.959,0l-.723-.023c-.09-.047-.194.008-.284-.041a12.886,12.886,0,0,1-3.977-.89,14.389,14.389,0,0,1-4.345-2.621,16.282,16.282,0,0,1-4.229-5.508,14.537,14.537,0,0,1-1.231-4.331,11.57,11.57,0,0,1-.114-1.6,5.487,5.487,0,0,1,0-1.1,14.2,14.2,0,0,1,2.418-7.811,16.509,16.509,0,0,1,4.724-4.69,14.043,14.043,0,0,1,5.19-2.1,15.867,15.867,0,0,1,4.857-.138,15.2,15.2,0,0,1,4.731,1.368,16.237,16.237,0,0,1,3.7,2.376,14.034,14.034,0,0,1,3.665,4.992c.092.21.036.264-.161.324q-2.313.7-4.622,1.419a.33.33,0,0,1-.467-.176,10.235,10.235,0,0,0-8.542-5.069A1.112,1.112,0,0,0,1859.407,442.468Z" transform="translate(-1802.353 -421.831)" fill="#aeaeae"/>
      <path id="Path_455" data-name="Path 455" d="M1845.811,458.416a9.582,9.582,0,0,1-1.1,4.567,9.924,9.924,0,0,1-4.095,4.131,8.959,8.959,0,0,1-3.426,1.084,9.5,9.5,0,0,1-10.09-6.2c-.06-.157-.028-.2.131-.253q2.394-.724,4.785-1.468c.18-.056.241-.008.31.155a4,4,0,0,0,3.1,2.452,4.037,4.037,0,0,0,3.43-1.008,4.313,4.313,0,0,0,1.441-2.123,4.251,4.251,0,0,0-2.366-5.026c-1.577-.731-3.161-1.449-4.725-2.207a8.434,8.434,0,0,1-4.838-6.277,3.062,3.062,0,0,1-.075-.845c-.062-.135.007-.284-.046-.421v-.114c.059-.2-.024-.419.047-.623a6.606,6.606,0,0,1,.908-3.009,7.588,7.588,0,0,1,8.249-3.978,8.1,8.1,0,0,1,2.575.888,7.413,7.413,0,0,1,3.307,3.673,9.063,9.063,0,0,1,.666,2.706c.021.212-.037.294-.261.32-1.462.171-2.923.36-4.383.54-.159.02-.32.035-.478.06-.18.028-.217-.026-.2-.213a2.585,2.585,0,0,0-1.835-2.682,2.4,2.4,0,0,0-2.409.612,2.448,2.448,0,0,0-.6,2.719,2.842,2.842,0,0,0,1.137,1.334,22.992,22.992,0,0,0,4.013,2.1,13.841,13.841,0,0,1,3.469,2.053,9.549,9.549,0,0,1,3.126,5.276,6.175,6.175,0,0,1,.175,1.4C1845.823,458.156,1845.761,458.294,1845.811,458.416Z" transform="translate(-1805.78 -421.832)" fill="#aeaeae"/>
      <path id="Path_456" data-name="Path 456" d="M1895.484,439.821h3.319a3.278,3.278,0,0,1-.8.288q-3.974,1.273-7.951,2.533c-2.139.678-4.283,1.346-6.421,2.025q-4.5,1.433-9,2.882c-.248.079-.369.054-.512-.186a15.248,15.248,0,0,0-7.793-6.518,25.9,25.9,0,0,0-3.548-1.075h.367q6.471,0,12.942.006c.237,0,.331-.06.4-.3q1.253-4.54,2.535-9.071.821-2.926,1.65-5.85a1.909,1.909,0,0,1,.088-.192c.219.79.431,1.54.636,2.291q.98,3.59,1.956,7.182c.529,1.937,1.059,3.872,1.577,5.811.044.164.139.125.23.126.531.006,1.062.007,1.593.011a.875.875,0,0,0,.311.018q2.461,0,4.92,0h1.717C1894.293,439.813,1894.888,439.773,1895.484,439.821Z" transform="translate(-1798.698 -424.36)" fill="#aeaeae"/>
      <path id="Path_457" data-name="Path 457" d="M1896.868,437.756q-1.767,1.327-3.536,2.654c-.863.646-1.729,1.286-2.593,1.929-1.363,1.016-2.719,2.037-4.088,3.044a.317.317,0,0,0-.128.424c.514,1.636,1.017,3.275,1.526,4.913l2.563,8.27a1.055,1.055,0,0,1,.021.14,2.369,2.369,0,0,1-.609-.412q-3.079-2.328-6.149-4.665c-1.371-1.041-2.745-2.076-4.108-3.125-.218-.168-.345-.138-.551.023-1.229.959-2.453,1.924-3.691,2.874-.856.656-1.7,1.331-2.545,2-1.037.816-2.09,1.611-3.134,2.418-.268.208-.524.435-.79.646-.084.066-.158.171-.307.125q.6-1.993,1.2-3.978c.069-.234.149-.465.214-.7a.455.455,0,0,1,.23-.27q2.172-1.344,4.339-2.7c1.557-.968,3.11-1.943,4.669-2.907q3.865-2.394,7.734-4.78,4.479-2.775,8.956-5.554c.241-.149.487-.288.731-.43.02,0,.037-.03.063,0S1896.874,437.737,1896.868,437.756Z" transform="translate(-1797.513 -421.717)" fill="#aeaeae"/>
      <path id="Path_458" data-name="Path 458" d="M1875.829,462.193c.4-.536.76-1,1.106-1.469,1.179-1.6,2.365-3.2,3.667-4.706a1.434,1.434,0,0,1,.774-.5.5.5,0,0,1,.652.606,1.942,1.942,0,0,1-.21.616c-.52,1.033-1.064,2.054-1.525,3.114a14.6,14.6,0,0,0-1.364,4.5.445.445,0,0,1-.524.392c-.221-.028-.315-.183-.3-.466a10.9,10.9,0,0,1,.72-2.943,32.925,32.925,0,0,1,1.705-3.747.232.232,0,0,0,.017-.192c-.225.266-.459.526-.673.8-1.061,1.348-2.127,2.691-3.124,4.087-.479.671-.947,1.349-1.422,2.024a1.793,1.793,0,0,1-.21.266.329.329,0,0,1-.58-.176.959.959,0,0,1,.038-.476c.367-1.472.648-2.962.946-4.448a.35.35,0,0,0,0-.3c-.243.3-.471.6-.713.888a18.982,18.982,0,0,1-2.784,2.588,31.738,31.738,0,0,1-5.887,3.7c-2.113,1.025-4.21,2.092-6.408,2.936a22.734,22.734,0,0,1-6.866,1.606,9.4,9.4,0,0,1-5.3-1.054,6.965,6.965,0,0,1-2.878-3.167,9.547,9.547,0,0,1-.683-1.926c-.055-.242-.007-.349.245-.391.477-.079.586-.022.776.423a7.333,7.333,0,0,0,4.463,4.194,11.906,11.906,0,0,0,4.87.605,25.02,25.02,0,0,0,3.62-.538,32.351,32.351,0,0,0,4.587-1.41,26.77,26.77,0,0,0,4.608-2.514,36.465,36.465,0,0,0,4.8-3.637,17.249,17.249,0,0,0,2.986-3.371,4.489,4.489,0,0,0,.737-1.8.95.95,0,0,1,.545-.684.522.522,0,0,1,.753.4,1.624,1.624,0,0,1-.014.509c-.342,1.757-.7,3.511-1.094,5.257C1875.852,461.886,1875.85,462,1875.829,462.193Z" transform="translate(-1802.427 -418.184)" fill="#aeaeae"/>
      <path id="Path_459" data-name="Path 459" d="M1809.3,464.888l.046,0q2.43,0,4.862,0c.4,0,.429-.03.429-.443q0-5.387,0-10.773a.947.947,0,0,1,.067-.5c0,.123-.011.247-.011.369q0,5.5,0,11c0,.458.054.4-.415.4q-2.331,0-4.663,0C1809.514,464.944,1809.391,465,1809.3,464.888Z" transform="translate(-1809.304 -418.645)" fill="#aeaeae"/>
      <path id="Path_460" data-name="Path 460" d="M1888.025,437.271l-4.908,0a.863.863,0,0,1-.336-.048h5.232l.049.01Z" transform="translate(-1794.731 -421.808)" fill="#aeaeae"/>
      <path id="Path_461" data-name="Path 461" d="M1890.368,437.27l-1.793,0v-.038l1.578-.01A.367.367,0,0,1,1890.368,437.27Z" transform="translate(-1793.581 -421.809)" fill="#aeaeae"/>
      <path id="Path_462" data-name="Path 462" d="M1888.857,437.228v.038l-1.7,0c0-.014-.008-.029-.012-.043Z" transform="translate(-1793.865 -421.808)" fill="#aeaeae"/>
      <path id="Path_463" data-name="Path 463" d="M1825.249,446.044V444.5A4.58,4.58,0,0,1,1825.249,446.044Z" transform="translate(-1806.141 -420.365)" fill="#aeaeae"/>
      <path id="Path_464" data-name="Path 464" d="M1844.382,449.51v1.1A2.478,2.478,0,0,1,1844.382,449.51Z" transform="translate(-1802.359 -419.372)" fill="#aeaeae"/>
      <path id="Path_465" data-name="Path 465" d="M1856.809,462.962h.959A2.231,2.231,0,0,1,1856.809,462.962Z" transform="translate(-1799.882 -416.704)" fill="#aeaeae"/>
      <path id="Path_466" data-name="Path 466" d="M1892.222,437.792l-.046-.061a.958.958,0,0,1,.416-.23A1.091,1.091,0,0,1,1892.222,437.792Z" transform="translate(-1792.867 -421.754)" fill="#aeaeae"/>
      <path id="Path_467" data-name="Path 467" d="M1828.1,443.059a1.842,1.842,0,0,1-.047.623A1.31,1.31,0,0,1,1828.1,443.059Z" transform="translate(-1805.587 -420.651)" fill="#aeaeae"/>
      <path id="Path_468" data-name="Path 468" d="M1856.915,441.589a.574.574,0,0,1,.458,0Z" transform="translate(-1799.861 -420.952)" fill="#aeaeae"/>
      <path id="Path_469" data-name="Path 469" d="M1828.056,443.674a.764.764,0,0,1,.046.421A.677.677,0,0,1,1828.056,443.674Z" transform="translate(-1805.587 -420.529)" fill="#aeaeae"/>
      <path id="Path_470" data-name="Path 470" d="M1842.718,454.952a.717.717,0,0,1-.047-.382A.619.619,0,0,1,1842.718,454.952Z" transform="translate(-1802.687 -418.368)" fill="#aeaeae"/>
      <path id="Path_471" data-name="Path 471" d="M1855.969,462.91a.482.482,0,0,1,.284.041A.386.386,0,0,1,1855.969,462.91Z" transform="translate(-1800.048 -416.715)" fill="#aeaeae"/>
      <path id="Path_472" data-name="Path 472" d="M1874.433,461.478a.485.485,0,0,1,.272-.046C1874.626,461.514,1874.526,461.48,1874.433,461.478Z" transform="translate(-1796.386 -417.007)" fill="#aeaeae"/>
      <path id="Path_473" data-name="Path 473" d="M1883.464,456.437l-.051.011a.182.182,0,0,1,0-.036.029.029,0,0,1,.024,0A.175.175,0,0,1,1883.464,456.437Z" transform="translate(-1794.606 -418.004)" fill="#aeaeae"/>
      <path id="Path_474" data-name="Path 474" d="M1828.409,445.971a6.06,6.06,0,0,0-.241-1.678,9.115,9.115,0,0,0-4.808-6.132,10.155,10.155,0,0,0-4.644-1.056c-3-.013-6.009,0-9.013,0-.113,0-.225.017-.338.026-.1.085-.044.2-.044.294q0,15.176,0,30.354a.709.709,0,0,0,.023.309.737.737,0,0,0,.281.018h4.715c.372,0,.327.035.327-.339q0-5.554,0-11.107c0-.1-.041-.208.038-.3,1.607-.031,3.214.055,4.821-.048a9.818,9.818,0,0,0,8.129-5.629,8.223,8.223,0,0,0,.753-3.171A9.724,9.724,0,0,0,1828.409,445.971Zm-5.286,1.115a4.465,4.465,0,0,1-1.011,2.441,4.116,4.116,0,0,1-3.022,1.44c-.4.035-.793.013-1.19.014-1,0-2.006,0-3.009,0-.138,0-.228,0-.227-.189.006-2.762,0-5.526,0-8.288a.239.239,0,0,1,.023-.081,13.655,13.655,0,0,1,1.419-.019c.965,0,1.931-.011,2.9.019a4.166,4.166,0,0,1,4.072,3.583c.015.094.031.187.048.28A3.23,3.23,0,0,1,1823.124,447.086Z" transform="translate(-1809.303 -421.833)" fill="#aeaeae"/>
      <path id="Path_475" data-name="Path 475" d="M1813.806,441.544q0,4.138-.008,8.273c0,.229.09.26.285.259,1.27-.007,2.541,0,3.811,0,.1,0,.207.008.312.013a.512.512,0,0,1-.277.044c-1.3,0-2.6,0-3.9,0-.2,0-.265-.066-.265-.261q.007-4.068,0-8.134A1.107,1.107,0,0,1,1813.806,441.544Z" transform="translate(-1808.418 -420.952)" fill="#aeaeae"/>
      <path id="Path_476" data-name="Path 476" d="M1820.837,445.565v-.8A1.4,1.4,0,0,1,1820.837,445.565Z" transform="translate(-1807.017 -420.312)" fill="#aeaeae"/>
      <path id="Path_477" data-name="Path 477" d="M1877.549,462.239a3.78,3.78,0,0,1,1.828-3.147c.108-.07.234-.165.368-.084s.079.242.056.364c-.132.7-.235,1.4-.417,2.089a2.906,2.906,0,0,1-1.23,1.617c-.254.177-.443.084-.542-.21A3.092,3.092,0,0,1,1877.549,462.239Z" transform="translate(-1795.768 -417.494)" fill="#aeaeae"/>
      <path id="Path_478" data-name="Path 478" d="M1890.365,462.566c-.019-.126-.047-.252-.187-.292s-.206.067-.277.156a11.139,11.139,0,0,1-1.062,1.144,2.258,2.258,0,0,1-.506.369.535.535,0,0,1,.077-.324c.327-.847.663-1.693.985-2.543.068-.182.149-.394-.078-.534a.636.636,0,0,0-.641.18,2.207,2.207,0,0,0-.158.268c-.175.326-.343.656-.524.978a8.745,8.745,0,0,1-1.5,2.058c-.255.248-.472.175-.533-.177a4.512,4.512,0,0,1-.016-1.05,1.7,1.7,0,0,1,.229-.785,4.882,4.882,0,0,1,1.648-1.658,1.26,1.26,0,0,1,1.6-.034c.165.135.295.066.393-.1a.615.615,0,0,0-.381-.945,1.93,1.93,0,0,0-1.231.016,4.63,4.63,0,0,0-2.738,2.454,3.861,3.861,0,0,1-.707,1.173,5.133,5.133,0,0,1-1.033.934.315.315,0,0,1,.024-.243q.306-.841.615-1.681.435-1.188.874-2.374c.085-.228,0-.313-.228-.322-.475-.022-.507,0-.669.461a4.723,4.723,0,0,1-.61,1.4c-.57.732-1.162,1.446-1.785,2.135a3.988,3.988,0,0,1-.936.823c-.19.109-.291.054-.3-.155a1.777,1.777,0,0,1,.178-.937c.291-.563.558-1.137.812-1.72a30.969,30.969,0,0,0,1.8-5.561,5.614,5.614,0,0,0,.147-1.637c-.012-.162-.037-.332-.211-.406a.412.412,0,0,0-.459.138,2.126,2.126,0,0,0-.5.719,27.263,27.263,0,0,0-1.559,4.507.3.3,0,0,1-.3.272,2.373,2.373,0,0,0-1.086.391,4.051,4.051,0,0,0-1.619,2.132,1.493,1.493,0,0,1-.26.562c-.334.35-.648.72-1,1.046a2.921,2.921,0,0,1-1.237.832.623.623,0,0,1-.85-.6c-.016-.2,0-.4-.006-.6.085-.048.189.017.272-.046a2.782,2.782,0,0,0,2.791-2.978.806.806,0,0,0-.96-.8,1.555,1.555,0,0,0-.711.271,4.75,4.75,0,0,0-2.03,2.784,4.185,4.185,0,0,0,.1,2.327.807.807,0,0,0,.973.58,3.174,3.174,0,0,0,1.451-.609,7.489,7.489,0,0,0,.929-.835c.056-.055.107-.163.2-.121.079.034.043.134.05.207.015.132.016.266.041.4a1.008,1.008,0,0,0,.616.887,1.1,1.1,0,0,0,1.1-.289c.193-.159.322-.391.551-.513.073.086.042.178.065.259s.036.187.068.274a.474.474,0,0,0,.6.342,1.618,1.618,0,0,0,.575-.231,5.912,5.912,0,0,0,.985-.9c.226-.228.475-.434.7-.64a.646.646,0,0,1-.016.086,3.457,3.457,0,0,0-.219,1.2c.022.307.162.422.467.371a1.746,1.746,0,0,0,.822-.427,8.956,8.956,0,0,0,1-.882c.041-.046.085-.121.162-.085.058.026.043.1.052.153.024.169.041.339.075.506a.916.916,0,0,0,1.632.514c.113-.108.214-.228.322-.344a.2.2,0,0,1,.072.17c.048.429.27.574.682.435a1.507,1.507,0,0,0,.328-.165,9.436,9.436,0,0,0,1.74-1.542A.979.979,0,0,0,1890.365,462.566Zm-7.613-6.848a26.422,26.422,0,0,1-1.553,4.975A25.359,25.359,0,0,1,1882.751,455.718Zm-7.934,6.247a4.09,4.09,0,0,1,1.51-1.793c.129-.084.291-.177.446-.05.137.113.1.271.066.422A2.208,2.208,0,0,1,1875,462.2C1874.828,462.208,1874.737,462.142,1874.817,461.965Z" transform="translate(-1796.512 -418.56)" fill="#aeaeae"/>
    </g>
    <g id="Group_542" data-name="Group 542" transform="translate(1030.463 3733.22)">
      <rect id="Rectangle_145" data-name="Rectangle 145" width="6.332" height="29.129" transform="translate(0 23.34)" fill="#aeaeae"/>
      <rect id="Rectangle_146" data-name="Rectangle 146" width="6.152" height="29.31" transform="translate(13.027 10.132)" fill="#aeaeae"/>
      <rect id="Rectangle_147" data-name="Rectangle 147" width="6.152" height="29.19" transform="translate(60.068 0)" fill="#aeaeae"/>
      <rect id="Rectangle_148" data-name="Rectangle 148" width="29.129" height="6.513" transform="translate(24.787 10.132)" fill="#aeaeae"/>
      <rect id="Rectangle_149" data-name="Rectangle 149" width="29.129" height="6.513" transform="translate(24.787 23.34)" fill="#aeaeae"/>
      <g id="Group_541" data-name="Group 541" transform="translate(24.631 34.842)">
        <path id="Path_479" data-name="Path 479" d="M1941.374,452.832h.587v4.032h1.936v.494h-2.523Z" transform="translate(-1941.374 -452.758)" fill="#aeaeae"/>
        <path id="Path_480" data-name="Path 480" d="M1947.692,452.832h2.438v.487h-1.851v1.508h1.71v.484h-1.71v2.048h-.587Z" transform="translate(-1938.397 -452.758)" fill="#aeaeae"/>
        <path id="Path_481" data-name="Path 481" d="M1954.665,452.832v4.527h-.587v-4.527Z" transform="translate(-1935.388 -452.758)" fill="#aeaeae"/>
        <path id="Path_482" data-name="Path 482" d="M1961.9,456.669a2.035,2.035,0,0,0,1.043.293c.6,0,.951-.312.951-.771,0-.419-.246-.666-.856-.9-.739-.262-1.2-.65-1.2-1.283a1.305,1.305,0,0,1,1.468-1.228,2.072,2.072,0,0,1,1,.219l-.162.48a1.725,1.725,0,0,0-.855-.215c-.622,0-.858.368-.858.677,0,.419.276.627.9.868.768.3,1.155.671,1.155,1.334,0,.694-.512,1.3-1.585,1.3a2.317,2.317,0,0,1-1.156-.3Z" transform="translate(-1931.778 -452.781)" fill="#aeaeae"/>
        <path id="Path_483" data-name="Path 483" d="M1969.7,455.074a2.12,2.12,0,0,1-2.1,2.382,2.073,2.073,0,0,1-2.034-2.3,2.147,2.147,0,0,1,2.095-2.377A2.064,2.064,0,0,1,1969.7,455.074Zm-3.516.071c0,.97.526,1.836,1.447,1.836s1.451-.853,1.451-1.882c0-.9-.469-1.842-1.443-1.842S1966.184,454.155,1966.184,455.145Z" transform="translate(-1929.976 -452.782)" fill="#aeaeae"/>
        <path id="Path_484" data-name="Path 484" d="M1970.488,452.832h.587v4.032h1.936v.494h-2.523Z" transform="translate(-1927.656 -452.758)" fill="#aeaeae"/>
        <path id="Path_485" data-name="Path 485" d="M1974.661,452.832v2.683c0,1.009.448,1.437,1.059,1.437.667,0,1.1-.443,1.1-1.437v-2.683h.589v2.641c0,1.392-.733,1.96-1.714,1.96-.924,0-1.621-.527-1.621-1.933v-2.667Z" transform="translate(-1925.967 -452.758)" fill="#aeaeae"/>
        <path id="Path_486" data-name="Path 486" d="M1979.655,453.326h-1.379v-.494h3.351v.494h-1.386v4.032h-.587Z" transform="translate(-1923.986 -452.758)" fill="#aeaeae"/>
        <path id="Path_487" data-name="Path 487" d="M1983.08,452.832v4.527h-.587v-4.527Z" transform="translate(-1922 -452.758)" fill="#aeaeae"/>
        <path id="Path_488" data-name="Path 488" d="M1989.137,455.074a2.122,2.122,0,0,1-2.1,2.382,2.073,2.073,0,0,1-2.035-2.3,2.148,2.148,0,0,1,2.1-2.377A2.065,2.065,0,0,1,1989.137,455.074Zm-3.516.071c0,.97.525,1.836,1.448,1.836s1.449-.853,1.449-1.882c0-.9-.469-1.842-1.442-1.842S1985.621,454.155,1985.621,455.145Z" transform="translate(-1920.818 -452.782)" fill="#aeaeae"/>
        <path id="Path_489" data-name="Path 489" d="M1989.924,457.359v-4.527h.643l1.45,2.288a13.162,13.162,0,0,1,.808,1.474l.015-.007c-.053-.6-.063-1.156-.063-1.857v-1.9h.55v4.527h-.595l-1.439-2.3a14.493,14.493,0,0,1-.842-1.515l-.021.007c.035.574.043,1.12.043,1.867v1.936Z" transform="translate(-1918.499 -452.758)" fill="#aeaeae"/>
      </g>
    </g>
    <g id="Group_543" data-name="Group 543" transform="translate(629.206 3733.22)">
      <path id="Path_490" data-name="Path 490" d="M2031.022,439.15a4.692,4.692,0,0,1,1.648.563A4.964,4.964,0,0,1,2034,440.8a5.046,5.046,0,0,1,.886,1.482,4.829,4.829,0,0,1,.32,1.758,5.765,5.765,0,0,1-.3,1.858,4.583,4.583,0,0,1-.9,1.57,4.348,4.348,0,0,1-1.482,1.094,4.794,4.794,0,0,1-2.033.409h-11.126V446.1h1.99v-9.843h-1.99v-2.874h9.466a3.326,3.326,0,0,1,1.294.254,3.166,3.166,0,0,1,1.051.707,3.532,3.532,0,0,1,.707,1.051,3.122,3.122,0,0,1,.265,1.281,3.161,3.161,0,0,1-.31,1.394A3.3,3.3,0,0,1,2031.022,439.15Zm-5.483-.4h1.635a1.32,1.32,0,0,0,.907-.263.861.861,0,0,0,0-1.283,1.232,1.232,0,0,0-.862-.267h-1.681Zm2.477,6.66a3.292,3.292,0,0,0,2.067-.488,1.655,1.655,0,0,0,.586-1.348,1.556,1.556,0,0,0-.6-1.372,3.676,3.676,0,0,0-2.034-.422h-2.5v3.629Z" transform="translate(-1979.856 -433.177)" fill="#aeaeae"/>
      <path id="Path_491" data-name="Path 491" d="M2043.486,449.436l-1.856-1.569a8.309,8.309,0,0,1-2.213,1.05,8.6,8.6,0,0,1-2.522.365,8.318,8.318,0,0,1-3.239-.63,8.588,8.588,0,0,1-2.653-1.714,7.892,7.892,0,0,1-1.793-2.543,7.789,7.789,0,0,1,0-6.238,7.931,7.931,0,0,1,1.793-2.543,8.553,8.553,0,0,1,2.653-1.714,8.624,8.624,0,0,1,6.479,0,8.556,8.556,0,0,1,2.654,1.714,7.926,7.926,0,0,1,1.793,2.543,7.788,7.788,0,0,1,.276,5.509,8.422,8.422,0,0,1-1.04,2.1l1.615,1.35Zm-6.591-4.025a3.532,3.532,0,0,0,1.46-.287l-.906-.751,1.946-2.324,1.107.93a4.383,4.383,0,0,0,.331-1.7,4.239,4.239,0,0,0-.309-1.615,4.335,4.335,0,0,0-.84-1.316,3.862,3.862,0,0,0-1.252-.884,3.825,3.825,0,0,0-3.073,0,3.977,3.977,0,0,0-1.261.884,4.3,4.3,0,0,0-.851,4.546,4.113,4.113,0,0,0,.851,1.316,3.947,3.947,0,0,0,1.261.884A3.727,3.727,0,0,0,2036.895,445.411Z" transform="translate(-1972.126 -433.269)" fill="#aeaeae"/>
      <path id="Path_492" data-name="Path 492" d="M2052.172,448.969h-13.8V446.1h1.991v-9.843h-1.991v-2.874h7.917v2.874h-1.615v9.158h4.38v-2.235h3.119Z" transform="translate(-1963.871 -433.177)" fill="#aeaeae"/>
      <path id="Path_493" data-name="Path 493" d="M2006.2,454.721a3.468,3.468,0,0,0,1.814-.488,3.828,3.828,0,0,0,1.328-1.326l3.318,2.725a8.185,8.185,0,0,1-2.821,2.2,8.617,8.617,0,0,1-6.866.169,8.437,8.437,0,0,1-2.633-1.714,8,8,0,0,1-1.781-2.543,7.772,7.772,0,0,1,0-6.238,8.169,8.169,0,0,1,1.781-2.554,8.368,8.368,0,0,1,2.633-1.725,8.227,8.227,0,0,1,3.227-.63,8.131,8.131,0,0,1,3.32.674,8.342,8.342,0,0,1,2.653,1.847l.486.486-.532,4.179-3.095-.4.155-1.285a3.8,3.8,0,0,0-1.283-1.16,3.441,3.441,0,0,0-1.7-.433,4.006,4.006,0,0,0-1.491.278,3.451,3.451,0,0,0-1.217.8,3.947,3.947,0,0,0-.83,1.291,4.564,4.564,0,0,0-.307,1.731,4.5,4.5,0,0,0,.307,1.709,3.947,3.947,0,0,0,.83,1.291,3.583,3.583,0,0,0,1.217.816A3.87,3.87,0,0,0,2006.2,454.721Z" transform="translate(-1997.908 -425.419)" fill="#aeaeae"/>
      <path id="Path_494" data-name="Path 494" d="M2022.719,445.6v9.843h1.992v2.874h-6.172v-3.426h-5.728v3.426h-6.17v-2.874h1.989V445.6h-1.989v-2.874h7.917V445.6h-1.747v5.73h5.728V445.6h-1.747v-2.874h7.919V445.6Z" transform="translate(-1990.561 -425.318)" fill="#aeaeae"/>
      <path id="Path_495" data-name="Path 495" d="M2025.094,442.612a8.524,8.524,0,0,1,5.9,2.346,8.034,8.034,0,0,1,1.781,2.543,7.789,7.789,0,0,1,0,6.238,7.993,7.993,0,0,1-1.781,2.543,8.524,8.524,0,0,1-5.9,2.346,8.321,8.321,0,0,1-3.24-.632,8.576,8.576,0,0,1-2.653-1.714,7.913,7.913,0,0,1-1.792-2.543,7.772,7.772,0,0,1,0-6.238,7.954,7.954,0,0,1,1.792-2.543,8.576,8.576,0,0,1,2.653-1.714A8.354,8.354,0,0,1,2025.094,442.612Zm0,12.143a3.733,3.733,0,0,0,1.537-.318,3.98,3.98,0,0,0,1.259-.886,4.124,4.124,0,0,0,.853-1.316,4.255,4.255,0,0,0-.853-4.546,3.975,3.975,0,0,0-1.259-.884,3.848,3.848,0,0,0-3.075,0,3.852,3.852,0,0,0-1.248.884,4.305,4.305,0,0,0-.842,1.317,4.372,4.372,0,0,0,0,3.229,4.263,4.263,0,0,0,.842,1.316,3.856,3.856,0,0,0,1.248.886A3.74,3.74,0,0,0,2025.094,454.755Z" transform="translate(-1982.054 -425.41)" fill="#aeaeae"/>
      <path id="Path_496" data-name="Path 496" d="M2046.5,450.506a8.077,8.077,0,0,1-2.123,5.452,7.683,7.683,0,0,1-2.335,1.714,6.569,6.569,0,0,1-2.885.641H2029.8v-2.874h1.988V445.6H2029.8v-2.874h8.869a7.68,7.68,0,0,1,3.04.608A7.821,7.821,0,0,1,2044.2,445a7.961,7.961,0,0,1,1.681,2.478A7.447,7.447,0,0,1,2046.5,450.506Zm-7.718,4a3.191,3.191,0,0,0,1.359-.344,3.656,3.656,0,0,0,1.106-.864,3.951,3.951,0,0,0,.74-1.259,4.395,4.395,0,0,0,.265-1.537,4.184,4.184,0,0,0-.286-1.548,4.351,4.351,0,0,0-.775-1.281,3.513,3.513,0,0,0-1.14-.863,3.207,3.207,0,0,0-1.381-.309h-2.7v8.007Z" transform="translate(-1971.08 -425.318)" fill="#aeaeae"/>
      <path id="Path_497" data-name="Path 497" d="M2047.8,442.612a8.527,8.527,0,0,1,5.9,2.346,8.024,8.024,0,0,1,1.78,2.543,7.782,7.782,0,0,1,0,6.238,7.983,7.983,0,0,1-1.78,2.543,8.527,8.527,0,0,1-5.9,2.346,8.321,8.321,0,0,1-3.24-.632,8.555,8.555,0,0,1-2.653-1.714,7.91,7.91,0,0,1-1.793-2.543,7.786,7.786,0,0,1,0-6.238,7.95,7.95,0,0,1,1.793-2.543,8.555,8.555,0,0,1,2.653-1.714A8.354,8.354,0,0,1,2047.8,442.612Zm0,12.143a3.72,3.72,0,0,0,1.536-.318,3.965,3.965,0,0,0,1.261-.886,4.192,4.192,0,0,0,1.162-2.929,4.192,4.192,0,0,0-1.162-2.933,3.96,3.96,0,0,0-1.261-.884,3.845,3.845,0,0,0-3.073,0,3.851,3.851,0,0,0-1.248.884,4.342,4.342,0,0,0-.843,1.317,4.392,4.392,0,0,0,0,3.229,4.3,4.3,0,0,0,.843,1.316,3.855,3.855,0,0,0,1.248.886A3.734,3.734,0,0,0,2047.8,454.755Z" transform="translate(-1962.957 -425.41)" fill="#aeaeae"/>
      <path id="Path_498" data-name="Path 498" d="M2067.415,445.6h-1.989v12.717h-2.034l-8.272-8.029v8.029h-6.3v-2.874h1.989V445.6h-1.989v-2.874h4.023l8.273,8.029v-8.029h6.3Z" transform="translate(-1955.084 -425.318)" fill="#aeaeae"/>
      <path id="Path_499" data-name="Path 499" d="M2074.139,450.354v5.973a10.57,10.57,0,0,1-1.967,1.237,10.076,10.076,0,0,1-2.346.8,11.594,11.594,0,0,1-2.5.265,8.322,8.322,0,0,1-3.241-.632,8.556,8.556,0,0,1-2.653-1.714,7.945,7.945,0,0,1-1.793-2.543,7.788,7.788,0,0,1,0-6.238,7.986,7.986,0,0,1,1.793-2.543,8.556,8.556,0,0,1,2.653-1.714,8.355,8.355,0,0,1,3.241-.631,10.275,10.275,0,0,1,2.686.333,9.112,9.112,0,0,1,2.246.928,7.509,7.509,0,0,1,1.326,1l-.508,3.981-3.073-.376.153-1.283a5.528,5.528,0,0,0-2.83-.707,3.7,3.7,0,0,0-1.537.32,3.985,3.985,0,0,0-1.261.884,4.207,4.207,0,0,0-1.16,2.933,4.719,4.719,0,0,0,.31,1.723,4.291,4.291,0,0,0,.851,1.381,3.944,3.944,0,0,0,1.261.919,3.6,3.6,0,0,0,1.537.333,4.624,4.624,0,0,0,1.327-.188,4.75,4.75,0,0,0,1.171-.543V453.8h-2.807v-3.451Z" transform="translate(-1946.527 -425.41)" fill="#aeaeae"/>
      <path id="Path_500" data-name="Path 500" d="M2023.91,459.761l3.228,5.019h1.992v2.876h-5l-3.008-4.736-3.007,4.736h-5V464.78h1.989l3.231-5.019-3.031-4.824h-2.189v-2.874h5.13l2.876,4.535,2.874-4.535h5.133v2.874h-2.191Z" transform="translate(-1985.114 -417.46)" fill="#aeaeae"/>
      <path id="Path_501" data-name="Path 501" d="M2040.814,454.937h-1.99v6.415a6.642,6.642,0,0,1-.278,1.9,6.223,6.223,0,0,1-2.112,3.141,6,6,0,0,1-1.792.972,8.841,8.841,0,0,1-3.028.488,10.164,10.164,0,0,1-1.617-.123,7.538,7.538,0,0,1-1.414-.365,6.064,6.064,0,0,1-3.062-2.289,6.346,6.346,0,0,1-1.12-3.727v-6.415h-1.989v-2.874h7.917v2.874h-1.747v5.31a4.392,4.392,0,0,0,.762,2.94,3.481,3.481,0,0,0,4.535,0,4.381,4.381,0,0,0,.762-2.94v-5.31H2032.9v-2.874h7.918Z" transform="translate(-1977.294 -417.46)" fill="#aeaeae"/>
      <path id="Path_502" data-name="Path 502" d="M2049.41,464.78v2.876h-4.976l-1.151-2.611h-6.015l-1.127,2.611h-4.513l6.238-12.719h-1.57v-2.874h5l6.236,12.717Zm-7.652-3.185-1.482-3.384-1.482,3.384Z" transform="translate(-1969.543 -417.46)" fill="#aeaeae"/>
      <path id="Path_503" data-name="Path 503" d="M2060.606,454.937h-1.99v12.719h-2.034l-8.273-8.029v8.029h-6.3V464.78H2044v-9.843h-1.988v-2.874h4.025l8.273,8.029v-8.029h6.3Z" transform="translate(-1960.813 -417.46)" fill="#aeaeae"/>
    </g>
    <g id="Group_544" data-name="Group 544" transform="translate(1194.943 3810.598)">
      <path id="Path_504" data-name="Path 504" d="M2176.143,434.751h1.923a18.808,18.808,0,0,1,10.766,4.23,18.11,18.11,0,0,1,6.537,11.918v4.422a18.506,18.506,0,0,1-1.538,5.577c-.771-.385-1.732-.769-2.5-1.154a15.027,15.027,0,0,0-2.693-.961,33.9,33.9,0,0,0-5.959-1.538v-9.422c-.386,0-.578-.192-.961-.192h-9.613v9.422a26.97,26.97,0,0,0-3.845.769,54.337,54.337,0,0,0-5.962,2.113,4.029,4.029,0,0,1-1.346.577,1.469,1.469,0,0,1-.382-.961,21.855,21.855,0,0,1-1.345-6.152,17.328,17.328,0,0,1,3.073-10.959,18.779,18.779,0,0,1,8.846-7.115C2172.49,435.326,2174.22,434.943,2176.143,434.751Z" transform="translate(-2003.11 -434.751)" fill="#aeaeae"/>
      <path id="Path_505" data-name="Path 505" d="M2078.617,447.158h6.151c1.923,5.575,3.845,11.343,5.769,16.918,2.113-5.575,4.229-11.343,6.152-16.918h5a8.176,8.176,0,0,1-.769,1.922c-2.885,7.306-5.769,14.421-8.653,21.725h-4.805q-3.75-10.094-7.5-20.187A25.777,25.777,0,0,1,2078.617,447.158Z" transform="translate(-2078.617 -423.126)" fill="#aeaeae"/>
      <path id="Path_506" data-name="Path 506" d="M2150.871,447.158h4.42c.192,0,.385,0,.385.192v11.343c1.729-1.538,3.076-3.268,4.808-4.806a1.142,1.142,0,0,1,.767-.194h5a25.637,25.637,0,0,1-2.307,2.307c-.769.579-1.346,1.346-2.113,1.924a30.5,30.5,0,0,0-2.5,2.5,10.7,10.7,0,0,0,1.154,1.538c1.728,2.307,3.459,4.806,5.383,7.113.383.577.769.963,1.152,1.538h-5.768c-.192,0-.192-.192-.384-.384-1.154-2.115-2.5-4.037-3.845-6.154a11.687,11.687,0,0,0-1.346-1.921V470.8h-5v-8.075C2150.871,457.54,2150.871,452.349,2150.871,447.158Z" transform="translate(-2011.097 -423.126)" fill="#aeaeae"/>
      <path id="Path_507" data-name="Path 507" d="M2160.5,451.31a35.571,35.571,0,0,1,14.034-3.847,33.974,33.974,0,0,1,16.728,3.847,18.375,18.375,0,0,1-9.036,7.113,18.026,18.026,0,0,1-12.69,0,14.7,14.7,0,0,1-4.805-2.692A15.417,15.417,0,0,1,2160.5,451.31Z" transform="translate(-2001.89 -422.856)" fill="#aeaeae"/>
      <path id="Path_508" data-name="Path 508" d="M2104.051,448.634a43.918,43.918,0,0,0,5-.384v4.228a25.7,25.7,0,0,0,3.845,0v2.884h-4.039v8.075a6.166,6.166,0,0,0,.578,2.692,1.289,1.289,0,0,0,1.538.575,10.385,10.385,0,0,0,1.923-.575,15.083,15.083,0,0,1,.961,2.69,16,16,0,0,1-4.037,1.154h-1.155a4.813,4.813,0,0,1-4.422-3.461,16.576,16.576,0,0,1-.192-3.076v-8.075h-2.307v-2.884h2.307Z" transform="translate(-2056.947 -422.103)" fill="#aeaeae"/>
      <path id="Path_509" data-name="Path 509" d="M2118.428,451.889a7.731,7.731,0,0,1,5.385-1.538,6.965,6.965,0,0,1,3.268,1.346,4.747,4.747,0,0,1,1.538,3.076,14.437,14.437,0,0,1,.194,2.884v10h-4.807v-7.3a18.633,18.633,0,0,0-.192-4.616,2.343,2.343,0,0,0-1.538-1.73,4.307,4.307,0,0,0-2.692,0,2.6,2.6,0,0,0-1.73,1.73,9.673,9.673,0,0,0-.385,2.307v9.613h-4.806v-16.92h5v1.923C2117.853,452.275,2118.239,452.081,2118.428,451.889Z" transform="translate(-2046.717 -420.168)" fill="#aeaeae"/>
      <path id="Path_510" data-name="Path 510" d="M2147.394,451.465a7.1,7.1,0,0,1,5.191-.961,4.947,4.947,0,0,1,2.307.961,4.357,4.357,0,0,1,1.922,2.884,40.266,40.266,0,0,1,.385,4.808V468h-4.808v-9.807a9.462,9.462,0,0,0-.19-2.307,2.742,2.742,0,0,0-1.538-1.73,5.508,5.508,0,0,0-2.5,0,3.317,3.317,0,0,0-1.924,2.309,18.658,18.658,0,0,0-.192,3.266v8.075h-5V450.889h5v1.73C2146.433,452.236,2146.818,451.659,2147.394,451.465Z" transform="translate(-2020.118 -420.128)" fill="#aeaeae"/>
      <path id="Path_511" data-name="Path 511" d="M2089.932,450.532h5v16.92h-5Z" transform="translate(-2068.015 -419.964)" fill="#aeaeae"/>
      <path id="Path_512" data-name="Path 512" d="M2108.692,450.573a43.462,43.462,0,0,1,5,0v16.92h-5V453.459A14.487,14.487,0,0,0,2108.692,450.573Z" transform="translate(-2050.437 -420.006)" fill="#aeaeae"/>
      <path id="Path_513" data-name="Path 513" d="M2098.391,450.94a9.8,9.8,0,0,1,5.768-.385,7.487,7.487,0,0,1,3.845,2.5,9.805,9.805,0,0,1,1.54,5.577,1.429,1.429,0,0,1-.194.961c-.192.192-.384.192-.769.192h-10a5.823,5.823,0,0,0,.961,3.078,4.978,4.978,0,0,0,3.269,1.73,7.893,7.893,0,0,0,5-1.344c.577.961.961,1.921,1.538,2.882a11.608,11.608,0,0,1-6.152,1.923h-1.538a10.12,10.12,0,0,1-4.614-1.54,8.974,8.974,0,0,1-3.654-5.575,9.162,9.162,0,0,1,.961-6.344A9.29,9.29,0,0,1,2098.391,450.94Zm1.346,3.268a4.244,4.244,0,0,0-.96,3.076h6.151a4.588,4.588,0,0,0-.575-2.69,2.318,2.318,0,0,0-1.924-1.346A3.124,3.124,0,0,0,2099.737,454.208Z" transform="translate(-2064.939 -420.179)" fill="#aeaeae"/>
      <path id="Path_514" data-name="Path 514" d="M2122.583,447.158h5.767a34.106,34.106,0,0,1,4.422.192,6.07,6.07,0,0,1,3.653,1.346,5.238,5.238,0,0,1,1.729,4.037,5.725,5.725,0,0,1-1.538,3.847,5.539,5.539,0,0,1-2.5,1.538,12.448,12.448,0,0,1,2.5.767,5.047,5.047,0,0,1,2.5,3.078,7.562,7.562,0,0,1-.191,4.612,6.869,6.869,0,0,1-4.037,3.655,22.463,22.463,0,0,1-7.115.769h-5.383V453.887C2122.583,451.58,2122.583,449.273,2122.583,447.158Zm5.189,3.46v6.154c1.54,0,3.076,0,4.23-.963a3.288,3.288,0,0,0,1.155-3.651,2.59,2.59,0,0,0-1.155-1.346c-.577-.194-1.154-.194-1.73-.385A10.192,10.192,0,0,0,2127.772,450.617Zm0,9.613v7.114c1.54,0,3.076.192,4.422-.385a3.4,3.4,0,0,0,2.115-2.69,5.7,5.7,0,0,0-.384-2.5,3.257,3.257,0,0,0-2.309-1.344A8.809,8.809,0,0,0,2127.772,460.231Z" transform="translate(-2037.603 -423.126)" fill="#aeaeae"/>
      <path id="Path_515" data-name="Path 515" d="M2134.417,451.713a10.664,10.664,0,0,1,7.69-1.154,5.72,5.72,0,0,1,3.847,2.5,7.16,7.16,0,0,1,.96,4.424v5.768a12.245,12.245,0,0,0,.769,4.612h-4.806c-.193,0-.579,0-.579-.192-.192-.575-.192-1.154-.382-1.73-.579.384-1.157.961-1.731,1.346a6.488,6.488,0,0,1-2.693.961h-1.153a4.754,4.754,0,0,1-3.655-2.307,5.535,5.535,0,0,1-.575-4.23,5.886,5.886,0,0,1,1.731-2.691,11.157,11.157,0,0,1,4.806-2.307c1.153-.385,2.307-.385,3.27-.771a2.892,2.892,0,0,0-3.847-2.3,6.728,6.728,0,0,0-3.268,1.73c-.577-.577-.961-1.346-1.538-1.924,0-.192-.194-.385-.194-.577A3.942,3.942,0,0,1,2134.417,451.713Zm3.653,8.653a2.579,2.579,0,0,0-1.154,1.344,2.317,2.317,0,0,0,.577,2.692,2.6,2.6,0,0,0,1.731.384,3.584,3.584,0,0,0,2.308-1.73,8.544,8.544,0,0,0,.575-3.845A7.1,7.1,0,0,0,2138.07,460.365Z" transform="translate(-2028.675 -420.182)" fill="#aeaeae"/>
      <path id="Path_516" data-name="Path 516" d="M2162.249,456.422a3.221,3.221,0,0,1,2.884.769,3.186,3.186,0,0,1,.384,3.845,3.576,3.576,0,0,1-2.307,1.346,3.1,3.1,0,0,1-2.5-1.154,2.92,2.92,0,0,1,.191-3.845A3.425,3.425,0,0,1,2162.249,456.422Zm.384.575a2.81,2.81,0,0,0-1.73,1.154,2.612,2.612,0,0,0,.769,3.27,2.325,2.325,0,0,0,2.691-.194,2.619,2.619,0,0,0,.577-3.27A2.234,2.234,0,0,0,2162.632,457Z" transform="translate(-2002.289 -414.51)" fill="#aeaeae"/>
      <path id="Path_517" data-name="Path 517" d="M2161,457.083a7.887,7.887,0,0,1,2.113.192c.579.385.771,1.54,0,1.732-.19,0-.19.192-.382.192a6.743,6.743,0,0,0,.96,1.54h-.579c-.382-.385-.575-.963-.961-1.346h-.575v1.538H2161Zm.577.385v.961h1.154c.382-.192.382-.769,0-.769A2.449,2.449,0,0,0,2161.577,457.468Z" transform="translate(-2001.425 -413.826)" fill="#aeaeae"/>
    </g>
    <g id="Group_545" data-name="Group 545" transform="translate(1209.402 3727.391)">
      <path id="Path_518" data-name="Path 518" d="M2206.246,446.643l-5.536,6.92v19.148h6.782V462.546h10.6v10.166h7.325V446.266h-7.475v9.852h-11.694Z" transform="translate(-2200.71 -416.501)" fill="#aeaeae"/>
      <path id="Path_519" data-name="Path 519" d="M2213.757,463.144l17.661-16.879h7.394v26.446H2231.3v-3.887h-11.065l6.05-6.578h5.134V455.37h-1.832l-15.829,17.342Z" transform="translate(-2187.769 -416.501)" fill="#aeaeae"/>
      <path id="Path_520" data-name="Path 520" d="M2226.754,452.3l7.207-6.137h12.64s4.409,1.978,4.409,9.9-4.409,9.569-4.409,9.569h-10.009V460.4h4.28a4.575,4.575,0,0,0,2.215-3.888,3.857,3.857,0,0,0-2.215-3.587h-6.912V472.81h-7.207Z" transform="translate(-2174.879 -416.6)" fill="#aeaeae"/>
      <path id="Path_521" data-name="Path 521" d="M2246.191,446.326l-6.611,6.742v12.708a10.847,10.847,0,0,0,10.064,6.876c7.631,0,10.948-6.577,10.948-6.577V446.583h-6.352v18.145a12.874,12.874,0,0,1-4.155,1.2c-1.632,0-3.442-1.944-3.442-1.944Z" transform="translate(-2162.158 -416.441)" fill="#aeaeae"/>
      <path id="Path_522" data-name="Path 522" d="M2258.448,446.455l-7.132,6.634v19.434h16.311v-6.279h-9.18Z" transform="translate(-2150.518 -416.313)" fill="#aeaeae"/>
      <path id="Path_523" data-name="Path 523" d="M2282.289,431.322c0,.448.224,15.323,0,15.548s-24.367,24.517-24.367,24.517V455.16Z" transform="translate(-2143.967 -431.322)" fill="#aeaeae"/>
      <path id="Path_524" data-name="Path 524" d="M2260.7,472.712h7.962V446.266l-7.962,7.161Z" transform="translate(-2141.213 -416.501)" fill="#aeaeae"/>
      <path id="Path_525" data-name="Path 525" d="M2289.156,446.326l-5.72,6.593H2276.5a6.534,6.534,0,0,0-4.816,6.412c0,5.248,3.516,6.894,3.516,6.894h6.234v6.427h-8.222a13.917,13.917,0,0,1-8.047-13.034c0-9.837,8.87-13.014,8.87-13.014Z" transform="translate(-2136.781 -416.441)" fill="#aeaeae"/>
      <path id="Path_526" data-name="Path 526" d="M2288.8,446.166a13.322,13.322,0,1,0,13.321,13.323A13.322,13.322,0,0,0,2288.8,446.166Zm0,21.027a7.7,7.7,0,1,1,7.7-7.7A7.7,7.7,0,0,1,2288.8,467.193Z" transform="translate(-2126.553 -416.6)" fill="#aeaeae"/>
    </g>
    <g id="Group_552" data-name="Group 552" transform="translate(434 3812.484)">
      <path id="Path_527" data-name="Path 527" d="M2324.854,458.358V458c3.28-1.26,2.756-4.234,2.446-5.942-.656-3.04-4.979-3.688-4.979-3.688h-11.025v20.727h11.362c5.083-.833,5.944-3.5,5.992-5.6A4.931,4.931,0,0,0,2324.854,458.358Zm-9.082-5.773h5.507s1.8.278,1.792,1.877c0,1.855-.627,2.309-1.744,2.309h-5.555Zm6.517,12.61c-1.123.016-6.494,0-6.494,0v-4.77h6.174a2.263,2.263,0,0,1,2.22,2.361C2324.189,464.59,2323.411,465.179,2322.288,465.2Z" transform="translate(-2311.295 -422.658)" fill="#aeaeae"/>
      <path id="Path_528" data-name="Path 528" d="M2373.733,458.358V458c3.277-1.26,2.754-4.234,2.444-5.942-.657-3.04-4.979-3.688-4.979-3.688h-11.025v20.727h11.362c5.083-.833,5.944-3.5,5.992-5.6A4.929,4.929,0,0,0,2373.733,458.358Zm-9.085-5.773h5.508s1.8.278,1.792,1.877c0,1.855-.627,2.309-1.744,2.309h-5.555Zm6.517,12.61c-1.123.016-6.493,0-6.493,0v-4.77h6.174a2.261,2.261,0,0,1,2.219,2.361C2373.065,464.59,2372.288,465.179,2371.165,465.2Z" transform="translate(-2263.2 -422.658)" fill="#aeaeae"/>
      <path id="Path_529" data-name="Path 529" d="M2333.3,448.377h-3.923c-3.823,4.2-8.539,20.719-8.539,20.719h4.057a24.536,24.536,0,0,1,1.716-5.051h9.277a18.953,18.953,0,0,1,1.932,4.972h3.928A78.092,78.092,0,0,0,2333.3,448.377Zm1.137,12.267H2328.2v-.577a31.11,31.11,0,0,1,3.095-6.51,29.5,29.5,0,0,1,3.143,6.462Z" transform="translate(-2301.906 -422.646)" fill="#aeaeae"/>
      <path id="Path_530" data-name="Path 530" d="M2357.667,448.377h-3.92c-3.825,4.2-8.539,20.719-8.539,20.719h4.058a24.573,24.573,0,0,1,1.716-5.051h9.277a18.94,18.94,0,0,1,1.933,4.972h3.929A78.146,78.146,0,0,0,2357.667,448.377Zm1.138,12.267h-6.238v-.577a31.145,31.145,0,0,1,3.095-6.51,29.469,29.469,0,0,1,3.143,6.462Z" transform="translate(-2277.925 -422.646)" fill="#aeaeae"/>
      <path id="Path_531" data-name="Path 531" d="M2382.163,448.377h-3.922c-3.823,4.2-8.539,20.719-8.539,20.719h4.057a24.566,24.566,0,0,1,1.716-5.051h9.277a18.973,18.973,0,0,1,1.932,4.972h3.928A78.092,78.092,0,0,0,2382.163,448.377Zm1.136,12.267h-6.237v-.577a31.119,31.119,0,0,1,3.094-6.51,29.487,29.487,0,0,1,3.143,6.462Z" transform="translate(-2253.822 -422.646)" fill="#aeaeae"/>
      <path id="Path_532" data-name="Path 532" d="M2347.325,454.424l2.565-2.791a9.156,9.156,0,0,0-7.553-3.351c-2.663-.081-9.6,1.843-10.448,9.214-.192,1.875-.538,10.045,8.589,11.7a10.236,10.236,0,0,0,9.645-3.4l-2.754-2.91s-2.16,2.575-4.725,2.768a6.566,6.566,0,0,1-6.641-6.827c-.095-1.256.915-6.02,5.173-6.307C2344.568,452.249,2345.951,453.14,2347.325,454.424Z" transform="translate(-2291.093 -422.743)" fill="#aeaeae"/>
      <path id="Path_533" data-name="Path 533" d="M2398.8,448.417h-4.089v12.019h-.376l-8.828-12.019h-4.154v20.559h4.49v-12.8h.257l9.382,12.813h3.576V448.417Z" transform="translate(-2242.357 -422.607)" fill="#aeaeae"/>
      <path id="Path_534" data-name="Path 534" d="M2392.08,468.936h4.442v-6.591l2-2.245h.5l6.551,8.836h4.786l-8.371-11.626v-.561l8.059-8.275h-5.221l-7.962,8.474h-.3v-8.474h-4.482Z" transform="translate(-2231.803 -422.551)" fill="#aeaeae"/>
      <g id="Group_546" data-name="Group 546" transform="translate(182.561 19.078)">
        <path id="Path_535" data-name="Path 535" d="M2408.22,445.024s-4.044,2.468-4.685,4.712.015,9.222,3.021,11.9c0,0-1.355-8.757,1.664-11.741C2409.757,448.647,2408.22,445.024,2408.22,445.024Z" transform="translate(-2403.312 -445.024)" fill="#aeaeae"/>
        <path id="Path_536" data-name="Path 536" d="M2408.183,445.024a8.8,8.8,0,0,1,2.388,7.6c-.769,4.331-5.636,9.013-5.636,9.013l1.531-11.186Z" transform="translate(-2401.713 -445.024)" fill="#aeaeae"/>
      </g>
      <g id="Group_547" data-name="Group 547" transform="translate(190.433 15.778)">
        <path id="Path_537" data-name="Path 537" d="M2407.279,444.6s1.128,4.6,3.075,5.893,8.793,2.774,12.257.718c0,0-8.758-1.357-10.688-5.137C2411.2,444.228,2407.279,444.6,2407.279,444.6Z" transform="translate(-2407.279 -442.174)" fill="#aeaeae"/>
        <path id="Path_538" data-name="Path 538" d="M2407.517,444.3a8.794,8.794,0,0,1,7.967.022c3.9,2.041,6.885,8.1,6.885,8.1l-10.2-4.845Z" transform="translate(-2407.045 -443.361)" fill="#aeaeae"/>
      </g>
      <g id="Group_548" data-name="Group 548" transform="translate(188.859 2.381)">
        <path id="Path_539" data-name="Path 539" d="M2407.2,449.308s4.73.28,6.537-1.2,5.246-7.583,4.3-11.5c0,0-3.88,7.968-8.061,8.7C2408,445.457,2407.2,449.308,2407.2,449.308Z" transform="translate(-2405.786 -436.608)" fill="#aeaeae"/>
        <path id="Path_540" data-name="Path 540" d="M2406.615,448.412a8.8,8.8,0,0,1,2.371-7.607c3.1-3.119,9.771-4.19,9.771-4.19l-7.636,8.315Z" transform="translate(-2406.485 -436.601)" fill="#aeaeae"/>
      </g>
      <g id="Group_549" data-name="Group 549" transform="translate(178.262 0)">
        <path id="Path_541" data-name="Path 541" d="M2410.081,449.591s1.7-4.422.835-6.593-5.641-7.3-9.658-7.583c0,0,6.418,6.111,5.847,10.317C2406.653,447.658,2410.081,449.591,2410.081,449.591Z" transform="translate(-2401.033 -435.401)" fill="#aeaeae"/>
        <path id="Path_542" data-name="Path 542" d="M2408.956,450.55a8.8,8.8,0,0,1-6.531-4.563c-2.034-3.9-1.035-10.579-1.035-10.579l5.612,9.8Z" transform="translate(-2401.145 -435.408)" fill="#aeaeae"/>
      </g>
      <g id="Group_550" data-name="Group 550" transform="translate(169.237 13.695)">
        <path id="Path_543" data-name="Path 543" d="M2412.973,445.414s-3.543-3.147-5.879-3.1-8.812,2.714-10.495,6.373c0,0,7.978-3.857,11.713-1.843C2409.957,447.942,2412.973,445.414,2412.973,445.414Z" transform="translate(-2396.593 -442.311)" fill="#aeaeae"/>
        <path id="Path_544" data-name="Path 544" d="M2413.432,444.654a8.8,8.8,0,0,1-6.569,4.508c-4.366.532-10.268-2.752-10.268-2.752l11.144-1.809Z" transform="translate(-2396.596 -440.058)" fill="#aeaeae"/>
      </g>
      <g id="Group_551" data-name="Group 551" transform="translate(185.782 13.922)" opacity="0.5">
        <path id="Path_545" data-name="Path 545" d="M2404.935,445.523a5.742,5.742,0,0,1,2.482-1.589" transform="translate(-2404.935 -440.94)" fill="#aeaeae" stroke="#8b3b18" stroke-miterlimit="10" stroke-width="0.5"/>
        <path id="Path_546" data-name="Path 546" d="M2406.977,446.746a5.741,5.741,0,0,0-.825-2.829" transform="translate(-2403.738 -440.957)" fill="#aeaeae" stroke="#8b3b18" stroke-miterlimit="10" stroke-width="0.5"/>
        <path id="Path_547" data-name="Path 547" d="M2409.107,443.871a5.739,5.739,0,0,1-2.944.123" transform="translate(-2403.727 -441.002)" fill="#aeaeae" stroke="#8b3b18" stroke-miterlimit="10" stroke-width="0.5"/>
        <path id="Path_548" data-name="Path 548" d="M2405.019,442.994a5.821,5.821,0,0,1,2.3,1.819" transform="translate(-2404.852 -441.865)" fill="#aeaeae" stroke="#8b3b18" stroke-miterlimit="10" stroke-width="0.5"/>
        <path id="Path_549" data-name="Path 549" d="M2407.006,442.425a6,6,0,0,0-.81,3.012" transform="translate(-2403.724 -442.425)" fill="#aeaeae" stroke="#8b3b18" stroke-miterlimit="10" stroke-width="0.5"/>
      </g>
    </g>
  </g>
</svg>
