<svg xmlns="http://www.w3.org/2000/svg" width="80" height="80" viewBox="0 0 80 80">
  <g id="Group_873" data-name="Group 873" transform="translate(-504 -3399)">
    <path id="Path_179" data-name="Path 179" d="M40,0A40,40,0,1,1,0,40,40,40,0,0,1,40,0Z" transform="translate(504 3399)" fill="#f1f1f1"/>
    <path id="Icon_awesome-hotel" data-name="Icon awesome-hotel" d="M41.014,4.687a1.172,1.172,0,0,0,1.172-1.172V1.172A1.172,1.172,0,0,0,41.014,0H1.172A1.172,1.172,0,0,0,0,1.172V3.515A1.172,1.172,0,0,0,1.172,4.687h1.17V32.811H1.172A1.172,1.172,0,0,0,0,33.983v2.344A1.172,1.172,0,0,0,1.172,37.5H18.749V31.639a1.175,1.175,0,0,1,1.172-1.172h2.344a1.175,1.175,0,0,1,1.172,1.172V37.5H41.014a1.172,1.172,0,0,0,1.172-1.172V33.983a1.172,1.172,0,0,0-1.172-1.172H39.842V4.687ZM18.749,7.968a1.008,1.008,0,0,1,.937-.937H22.5a1.008,1.008,0,0,1,.937.937v2.812a1.008,1.008,0,0,1-.937.937H19.687a1.008,1.008,0,0,1-.937-.937V7.968Zm0,7.031a1.008,1.008,0,0,1,.937-.937H22.5a1.008,1.008,0,0,1,.937.937v2.812a1.008,1.008,0,0,1-.937.937H19.687a1.008,1.008,0,0,1-.937-.937V15ZM9.375,7.968a1.008,1.008,0,0,1,.937-.937h2.812a1.008,1.008,0,0,1,.937.937v2.812a1.008,1.008,0,0,1-.937.937H10.312a1.008,1.008,0,0,1-.937-.937Zm3.75,10.781H10.312a1.008,1.008,0,0,1-.937-.937V15a1.008,1.008,0,0,1,.937-.937h2.812a1.008,1.008,0,0,1,.937.937v2.812A1.008,1.008,0,0,1,13.124,18.749Zm.937,9.375a7.031,7.031,0,1,1,14.062,0ZM32.811,17.812a1.008,1.008,0,0,1-.937.937H29.061a1.008,1.008,0,0,1-.937-.937V15a1.008,1.008,0,0,1,.937-.937h2.812a1.008,1.008,0,0,1,.937.937Zm0-7.031a1.008,1.008,0,0,1-.937.937H29.061a1.008,1.008,0,0,1-.937-.937V7.968a1.008,1.008,0,0,1,.937-.937h2.812a1.008,1.008,0,0,1,.937.937Z" transform="translate(523.016 3420.251)" fill="#aeaeae"/>
  </g>
</svg>
