<svg xmlns="http://www.w3.org/2000/svg" width="67.632" height="60.188" viewBox="0 0 67.632 60.188">
  <path id="Union_3" data-name="Union 3" d="M57.065,56.171l-6.531,4.017,2.256-6.794L46.5,49.085l7.926-.182,2.642-6.68,2.642,6.68,7.925.182L61.34,53.395,63.6,60.188Zm-46.5,0L4.036,60.188l2.257-6.794L0,49.085,7.925,48.9l2.642-6.68,2.642,6.68,7.926.182-6.292,4.309L17.1,60.188Zm23.249-4.463-6.532,4.253,2.257-7.192L23.249,44.2l7.925-.191,2.642-7.074,2.641,7.074,7.926.191-6.293,4.564,2.257,7.192ZM31.182,36.884V30.956c0-4.821,9.669-7.245,14.49-7.245s14.49,2.424,14.49,7.245v5.928Zm-23.712,0V30.3c0-6.138,12.3-9.221,18.442-9.221a32.338,32.338,0,0,1,6.244.738c-5.375,2.977-6.244,6.9-6.244,9.142v5.928ZM39.086,11.855a6.573,6.573,0,1,1,6.586,6.586A6.588,6.588,0,0,1,39.086,11.855ZM18.009,7.9a7.891,7.891,0,1,1,7.9,7.9A7.893,7.893,0,0,1,18.009,7.9Z" fill="#fff"/>
</svg>
