<svg xmlns="http://www.w3.org/2000/svg" width="199.452" height="40" viewBox="0 0 199.452 40">
  <g id="Logo" transform="translate(-2277.469 156.721)">
    <g id="Group_340" data-name="Group 340" transform="translate(2319.901 -156.721)">
      <path id="Path_2" data-name="Path 2" d="M284.351,181.088a14.23,14.23,0,0,1-1.917-3.246,14.611,14.611,0,0,1-1.216-5.991c0-.094-.029-.132-.128-.13-.355.009-.71.01-1.065.014h-.3a9.06,9.06,0,0,0,.359,2.375H278.7a18.242,18.242,0,0,0,4.444,7.182,17.567,17.567,0,0,0,6.353,4.1l.029-.045-.232-.129A15.747,15.747,0,0,1,284.351,181.088Z" transform="translate(-278.698 -157.515)" fill="#ffa30b"/>
      <path id="Path_3" data-name="Path 3" d="M315.53,139.087l-.005-.016c-.019,0-.038,0-.057,0a19.866,19.866,0,0,0-3.126.3,6.822,6.822,0,0,0-.832.254.557.557,0,0,0-.135.086c.2.211.38.423.584.614.039.037.157,0,.234-.016.477-.118.95-.252,1.43-.361.37-.084.373-.071.576.257.016.027.031.054.055.094-.249.028-.491.037-.724.087-.34.072-.675.168-1.01.262-.13.036-.164.113-.1.251.138.286.127.273.44.22.49-.083.984-.141,1.475-.212.133-.019.209.024.234.163a2.362,2.362,0,0,0,.088.286c-.217.015-.419.014-.614.046-.338.056-.673.13-1.008.2-.094.02-.135.076-.081.174a1.426,1.426,0,0,1,.059.148c.131.318.13.31.468.273s.7-.055,1.044-.087c.1-.01.156.021.173.128.087.548.212,1.093.263,1.644a9.834,9.834,0,0,1-.656,4.5,10.205,10.205,0,0,1-2.909,4.125,8.805,8.805,0,0,1-3.153,1.762,7.387,7.387,0,0,1-2.775.306,7.856,7.856,0,0,1-4.022-1.591,9.383,9.383,0,0,1-2.642-2.8,7.573,7.573,0,0,1-1.057-3.085,8.709,8.709,0,0,1,1.779-6.31,8.521,8.521,0,0,1,3.928-2.987,7.564,7.564,0,0,1,3.655-.41,8.314,8.314,0,0,1,2.006.525c.048.019.1.033.175.06-.023-.067-.033-.11-.052-.15-.325-.69-.653-1.378-.975-2.069a.227.227,0,0,0-.205-.144,13.858,13.858,0,0,0-3.264.047,10.629,10.629,0,0,0-3.189.971,9.848,9.848,0,0,0-3.437,2.791,11.434,11.434,0,0,0-2.253,5.139,12.666,12.666,0,0,0-.194,2.989c.005.087-.007.139-.11.151-.124.014-.247.045-.4.075a11.513,11.513,0,0,1,2.585-8.775,11.221,11.221,0,0,1,8.229-3.962c-.027-.059-.043-.1-.066-.142-.439-.737-.884-1.471-1.316-2.212a.25.25,0,0,0-.3-.127,14.113,14.113,0,0,0-2.772.667,12.714,12.714,0,0,0-6.415,5,14.639,14.639,0,0,0-2.223,5.514,16.236,16.236,0,0,0-.25,3.828c.02.417.067.832.1,1.263a3.953,3.953,0,0,1-.409.019c-.033,0-.083-.072-.091-.117-.069-.439-.155-.877-.19-1.319-.045-.564-.076-1.132-.064-1.7a13.615,13.615,0,0,1,1.009-4.9,14.193,14.193,0,0,1,3.641-5.2,14.67,14.67,0,0,1,3.746-2.483c.067-.031.133-.065.2-.1.013-.007.021-.023.04-.043l-.594-1.009q-.543-.925-1.085-1.85c-.047-.08-.085-.126-.2-.093a15.78,15.78,0,0,0-2.781,1.072,13.265,13.265,0,0,0-2.987,2.058,13.446,13.446,0,0,0-3.431,5.019,15.32,15.32,0,0,0-.96,3.806,15.953,15.953,0,0,0-.02,3.725,15.683,15.683,0,0,0,1.867,5.927,13.46,13.46,0,0,0,8.942,6.718,15.86,15.86,0,0,0,2.575.358,18.626,18.626,0,0,0,2.7-.042,11.379,11.379,0,0,0,3.423-.578,9.1,9.1,0,0,0,2.057-1.166,14.446,14.446,0,0,0,2.487-2.237,20.44,20.44,0,0,0,3.8-6.463c.371-1.033.625-2.1.9-3.16a12.956,12.956,0,0,1,.947-2.64,3.456,3.456,0,0,1,1.069-1.358,30.188,30.188,0,0,1,4.726-2.662c.245-.112.492-.219.738-.328A42.889,42.889,0,0,1,315.53,139.087Zm.4,1.377.409,2.661v0Zm.676-1.657a.809.809,0,1,1,.822-.8A.822.822,0,0,1,317.01,141.468Z" transform="translate(-285.167 -130.029)" fill="#ffa30b"/>
    </g>
    <path id="Path_4" data-name="Path 4" d="M154.169,149.526a99.224,99.224,0,0,0,55.2,22.918c-7.264.65-33.107,2.1-49.4-15.189A43.538,43.538,0,0,1,154.169,149.526Z" transform="translate(2123.3 -299.603)" fill="#0089cf"/>
    <path id="Path_5" data-name="Path 5" d="M244.567,209.675a87.529,87.529,0,0,1-48.177-4.182,39.377,39.377,0,0,0,10.288,6.106,40.846,40.846,0,0,0,14.637,2.844A52.446,52.446,0,0,0,244.567,209.675Z" transform="translate(2095.465 -336.5)" fill="#0089cf"/>
    <path id="Path_6" data-name="Path 6" d="M233.7,221.44a55.242,55.242,0,0,0,15.975,1.171,56.3,56.3,0,0,0,25.343-8.28,44.877,44.877,0,0,1-18.15,9.953,29.7,29.7,0,0,1-11.459,1.171A28.237,28.237,0,0,1,233.7,221.44Z" transform="translate(2070.868 -342.326)" fill="#0089cf"/>
    <g id="Group_466" data-name="Group 466" transform="translate(2359.571 -148.377)">
      <g id="Group_342" data-name="Group 342" transform="translate(68.865 0)">
        <path id="Path_7" data-name="Path 7" d="M442.453,301.826a2.8,2.8,0,0,0-1.278.275,2.619,2.619,0,0,0-.9.742,3.394,3.394,0,0,0-.551,1.1,5.5,5.5,0,0,0-.222,1.354h5.753a3.962,3.962,0,0,0-.65-2.548A2.518,2.518,0,0,0,442.453,301.826Z" transform="translate(-401.352 -292.18)" fill="#0089cf"/>
        <path id="Path_8" data-name="Path 8" d="M373,276.85H361.155c0-.024,0-.047,0-.071a3.756,3.756,0,0,0-3.766-3.263h-11.3a3.7,3.7,0,0,0-3.673,3.333H330.574a3.03,3.03,0,0,0-3.03,3.03v13.733a3.03,3.03,0,0,0,3.03,3.03H373a3.03,3.03,0,0,0,3.03-3.03V279.88A3.03,3.03,0,0,0,373,276.85ZM332.741,295.19a3.5,3.5,0,0,1-3.558.008,2.574,2.574,0,0,1-.49-1.829,2.743,2.743,0,0,1,.5-1.928,2.551,2.551,0,0,1,1.8-.49,2.5,2.5,0,0,1,1.759.482,2.6,2.6,0,0,1,.49,1.844A2.717,2.717,0,0,1,332.741,295.19Zm26.05-.23a.416.416,0,0,1-.092.268.673.673,0,0,1-.306.191,2.607,2.607,0,0,1-.582.115,9.272,9.272,0,0,1-.933.038,9.465,9.465,0,0,1-.949-.038,2.747,2.747,0,0,1-.589-.115.621.621,0,0,1-.306-.191.439.439,0,0,1-.084-.268v-8.095a5.6,5.6,0,0,0-.13-1.254,2.938,2.938,0,0,0-.4-.971,1.893,1.893,0,0,0-.674-.628,2,2,0,0,0-.971-.222,2.3,2.3,0,0,0-1.393.536,9.277,9.277,0,0,0-1.53,1.561v9.073a.415.415,0,0,1-.092.268.674.674,0,0,1-.314.191,2.752,2.752,0,0,1-.589.115,9.084,9.084,0,0,1-.918.038,9.275,9.275,0,0,1-.933-.038,2.743,2.743,0,0,1-.589-.115.674.674,0,0,1-.314-.191.415.415,0,0,1-.092-.268v-8.095a5.62,5.62,0,0,0-.13-1.254,3.052,3.052,0,0,0-.39-.971,1.812,1.812,0,0,0-.673-.628,2.012,2.012,0,0,0-.964-.222,2.321,2.321,0,0,0-1.408.536,8.91,8.91,0,0,0-1.515,1.561v9.073a.413.413,0,0,1-.092.268.675.675,0,0,1-.313.191,2.752,2.752,0,0,1-.589.115,11.341,11.341,0,0,1-1.867,0,2.745,2.745,0,0,1-.589-.115.675.675,0,0,1-.314-.191.417.417,0,0,1-.092-.268V281.311a.469.469,0,0,1,.076-.268.563.563,0,0,1,.275-.191,2.2,2.2,0,0,1,.513-.115,6.688,6.688,0,0,1,.788-.038,7.068,7.068,0,0,1,.811.038,1.839,1.839,0,0,1,.5.115.564.564,0,0,1,.252.191.474.474,0,0,1,.077.268v1.576a9.022,9.022,0,0,1,2.257-1.836,4.849,4.849,0,0,1,2.349-.612,6,6,0,0,1,1.515.176,4.318,4.318,0,0,1,1.2.5,3.785,3.785,0,0,1,.91.788,4.576,4.576,0,0,1,.642,1.026,11.575,11.575,0,0,1,1.2-1.132,7.077,7.077,0,0,1,1.163-.773,5.311,5.311,0,0,1,1.148-.444,4.77,4.77,0,0,1,1.17-.145,5.173,5.173,0,0,1,2.3.459,4.025,4.025,0,0,1,1.507,1.247,5.016,5.016,0,0,1,.819,1.844,9.858,9.858,0,0,1,.245,2.234Zm-14.58-18.109a1.915,1.915,0,0,1,1.878-1.554h11.394a1.915,1.915,0,0,1,1.878,1.554Zm30.968,10.887a1.487,1.487,0,0,1-.313,1.041,1.125,1.125,0,0,1-.865.336h-8.309a5.655,5.655,0,0,0,.207,1.583,3,3,0,0,0,.658,1.209,2.859,2.859,0,0,0,1.163.758,4.97,4.97,0,0,0,1.706.26,9.581,9.581,0,0,0,1.775-.145,11.829,11.829,0,0,0,1.323-.321q.559-.175.926-.322a1.726,1.726,0,0,1,.6-.145.454.454,0,0,1,.229.053.4.4,0,0,1,.153.191,1.286,1.286,0,0,1,.085.391q.023.252.023.635c0,.224-.005.416-.015.574a3.706,3.706,0,0,1-.046.406.984.984,0,0,1-.092.283,1.053,1.053,0,0,1-.161.221,1.839,1.839,0,0,1-.543.291,8.543,8.543,0,0,1-1.133.359,15.476,15.476,0,0,1-1.576.306,13.077,13.077,0,0,1-1.9.13,10.045,10.045,0,0,1-3.19-.459,5.678,5.678,0,0,1-2.287-1.393,5.786,5.786,0,0,1-1.369-2.356,11.051,11.051,0,0,1-.452-3.336,10.6,10.6,0,0,1,.474-3.282,6.876,6.876,0,0,1,1.377-2.478,5.924,5.924,0,0,1,2.2-1.553,7.553,7.553,0,0,1,2.915-.536,7.643,7.643,0,0,1,2.931.5,5.3,5.3,0,0,1,2,1.4,5.646,5.646,0,0,1,1.148,2.12,9.222,9.222,0,0,1,.367,2.662Z" transform="translate(-327.544 -273.517)" fill="#0089cf"/>
      </g>
      <path id="Path_9" data-name="Path 9" d="M139.595,294.448c0,.051,0,.112-.008.183a2.291,2.291,0,0,1-.031.237c-.015.087-.036.187-.061.3s-.059.239-.1.382l-4.1,12.348a1.205,1.205,0,0,1-.207.42.86.86,0,0,1-.429.253,3.6,3.6,0,0,1-.811.123q-.513.03-1.339.03t-1.324-.038a3.69,3.69,0,0,1-.8-.13.857.857,0,0,1-.421-.253,1.2,1.2,0,0,1-.206-.406l-4.1-12.348q-.092-.306-.146-.551a2.808,2.808,0,0,1-.061-.352c-.005-.072-.007-.138-.007-.2a.439.439,0,0,1,.084-.268.614.614,0,0,1,.3-.191,2.38,2.38,0,0,1,.589-.107q.376-.031.941-.031.628,0,1.01.038a3.158,3.158,0,0,1,.6.108.58.58,0,0,1,.314.2,1.2,1.2,0,0,1,.153.314l3.106,10.022.092.383.092-.383,3.061-10.022a.842.842,0,0,1,.145-.314.621.621,0,0,1,.314-.2,2.916,2.916,0,0,1,.573-.108,9.252,9.252,0,0,1,.941-.038q.566,0,.926.031a2.107,2.107,0,0,1,.558.107.56.56,0,0,1,.275.191A.47.47,0,0,1,139.595,294.448Z" transform="translate(-125.441 -286.922)" fill="#002d7a"/>
      <path id="Path_10" data-name="Path 10" d="M177.481,308.112a.414.414,0,0,1-.092.267.677.677,0,0,1-.313.191,2.731,2.731,0,0,1-.589.115q-.367.038-.933.038t-.934-.038a2.715,2.715,0,0,1-.589-.115.676.676,0,0,1-.314-.191.416.416,0,0,1-.092-.267V294.494a.416.416,0,0,1,.092-.267.727.727,0,0,1,.314-.2,2.611,2.611,0,0,1,.589-.13,9.424,9.424,0,0,1,1.867,0,2.627,2.627,0,0,1,.589.13.728.728,0,0,1,.313.2.414.414,0,0,1,.092.267Z" transform="translate(-157.207 -286.922)" fill="#002d7a"/>
      <path id="Path_11" data-name="Path 11" d="M201.243,299.809a4.838,4.838,0,0,1-.084,1.034,1.116,1.116,0,0,1-.222.5,1.213,1.213,0,0,1-.406.261,3.8,3.8,0,0,1-.627.2,6.528,6.528,0,0,1-.78.13,7.657,7.657,0,0,1-.849.046,6.1,6.1,0,0,1-1.989-.291,3.3,3.3,0,0,1-1.393-.895,3.733,3.733,0,0,1-.811-1.523,8.011,8.011,0,0,1-.26-2.172v-6.993h-1.637c-.194,0-.342-.12-.444-.36a3.352,3.352,0,0,1-.153-1.2,6.169,6.169,0,0,1,.039-.75,1.811,1.811,0,0,1,.114-.482.566.566,0,0,1,.191-.252.475.475,0,0,1,.267-.077h1.622v-3.045a.475.475,0,0,1,.084-.275.633.633,0,0,1,.306-.207,2.448,2.448,0,0,1,.6-.122q.375-.038.926-.038t.94.038a2.326,2.326,0,0,1,.589.122.686.686,0,0,1,.306.207.445.445,0,0,1,.092.275v3.045h2.969a.475.475,0,0,1,.267.077.569.569,0,0,1,.192.252,1.812,1.812,0,0,1,.115.482,6.241,6.241,0,0,1,.038.75,3.36,3.36,0,0,1-.153,1.2q-.153.36-.444.36h-2.984v6.411a3.187,3.187,0,0,0,.352,1.676,1.364,1.364,0,0,0,1.255.558,2.585,2.585,0,0,0,.551-.053,3.538,3.538,0,0,0,.436-.122q.191-.069.321-.123a.625.625,0,0,1,.237-.053.322.322,0,0,1,.176.053.359.359,0,0,1,.131.214,3.318,3.318,0,0,1,.084.436A5.341,5.341,0,0,1,201.243,299.809Z" transform="translate(-169.048 -279.966)" fill="#002d7a"/>
      <path id="Path_12" data-name="Path 12" d="M236.864,295.231q0,.551-.031.9a2.741,2.741,0,0,1-.092.551.539.539,0,0,1-.161.276.4.4,0,0,1-.252.076.837.837,0,0,1-.275-.053q-.154-.054-.345-.115t-.421-.115a2.215,2.215,0,0,0-.5-.054,1.7,1.7,0,0,0-.643.131,2.685,2.685,0,0,0-.665.4,4.952,4.952,0,0,0-.719.735,11.946,11.946,0,0,0-.8,1.132v8.508a.414.414,0,0,1-.092.267.677.677,0,0,1-.313.192,2.733,2.733,0,0,1-.589.115q-.367.038-.933.038t-.934-.038a2.717,2.717,0,0,1-.589-.115.676.676,0,0,1-.314-.192.416.416,0,0,1-.092-.267V293.961a.469.469,0,0,1,.077-.268.56.56,0,0,1,.275-.191,2.194,2.194,0,0,1,.513-.115,6.677,6.677,0,0,1,.787-.038,7.067,7.067,0,0,1,.811.038,1.839,1.839,0,0,1,.5.115.567.567,0,0,1,.253.191.476.476,0,0,1,.076.268v1.7a10.851,10.851,0,0,1,1.01-1.262,5.7,5.7,0,0,1,.9-.788,2.837,2.837,0,0,1,.857-.406,3.3,3.3,0,0,1,.857-.115,4.217,4.217,0,0,1,.428.023,4.156,4.156,0,0,1,.475.077,3.194,3.194,0,0,1,.428.122.849.849,0,0,1,.268.146.47.47,0,0,1,.122.168,1.3,1.3,0,0,1,.069.253,3.784,3.784,0,0,1,.046.482Q236.863,294.679,236.864,295.231Z" transform="translate(-193.117 -286.42)" fill="#002d7a"/>
      <path id="Path_13" data-name="Path 13" d="M297.068,301.834a12.515,12.515,0,0,1-.382,3.219,7.264,7.264,0,0,1-1.119,2.439,4.96,4.96,0,0,1-1.832,1.547,5.606,5.606,0,0,1-2.507.54,4.786,4.786,0,0,1-1.074-.112,4.125,4.125,0,0,1-.945-.346,5.778,5.778,0,0,1-.908-.578,10.617,10.617,0,0,1-.931-.81v6.305a.439.439,0,0,1-.09.27.676.676,0,0,1-.308.2,2.6,2.6,0,0,1-.578.128,9.4,9.4,0,0,1-1.831,0,2.6,2.6,0,0,1-.578-.128.675.675,0,0,1-.308-.2.441.441,0,0,1-.09-.27V295.333a.464.464,0,0,1,.075-.262.554.554,0,0,1,.263-.188,2.035,2.035,0,0,1,.5-.112,6.659,6.659,0,0,1,.773-.038,6.5,6.5,0,0,1,.758.038,2.045,2.045,0,0,1,.5.112.556.556,0,0,1,.263.188.463.463,0,0,1,.075.262v1.577a13.382,13.382,0,0,1,1.148-1.059,6.986,6.986,0,0,1,1.149-.766,5.259,5.259,0,0,1,1.209-.458,5.686,5.686,0,0,1,1.329-.15,5.088,5.088,0,0,1,2.507.578,4.758,4.758,0,0,1,1.689,1.584,7.146,7.146,0,0,1,.953,2.342A13,13,0,0,1,297.068,301.834Zm-3.933.27a10.268,10.268,0,0,0-.128-1.644,4.87,4.87,0,0,0-.435-1.4,2.675,2.675,0,0,0-.81-.983,2.074,2.074,0,0,0-1.254-.367,2.524,2.524,0,0,0-.743.112,2.924,2.924,0,0,0-.751.369,5.235,5.235,0,0,0-.788.661,9.391,9.391,0,0,0-.856,1.006v4.413a8.809,8.809,0,0,0,1.516,1.553,2.449,2.449,0,0,0,1.5.548,2.074,2.074,0,0,0,1.254-.375,2.9,2.9,0,0,0,.848-.983,4.978,4.978,0,0,0,.488-1.373A7.582,7.582,0,0,0,293.135,302.1Z" transform="translate(-229.7 -287.335)" fill="#002d7a"/>
      <path id="Path_14" data-name="Path 14" d="M265.211,302.83q0-1.953.008-3.917.007-1.887.02-3.763a.586.586,0,0,0-.519-.579,10.094,10.094,0,0,0-2.778,0,.472.472,0,0,0-.413.458c-.059,7.877-.1,13.6-.1,13.707a.4.4,0,0,0,.031.158.457.457,0,0,0,.059.1.669.669,0,0,0,.308.182,2.889,2.889,0,0,0,.578.11c.443.024.664.036.916.036s.47-.012.916-.036a2.881,2.881,0,0,0,.578-.11.68.68,0,0,0,.308-.182.45.45,0,0,0,.057-.091.4.4,0,0,0,.033-.164c0-.111.007-4.321.015-10.088" transform="translate(-215.092 -287.335)" fill="#002d7a"/>
    </g>
  </g>
</svg>
