<svg xmlns="http://www.w3.org/2000/svg" width="80" height="80" viewBox="0 0 80 80">
  <g id="Group_875" data-name="Group 875" transform="translate(-1332 -3399)">
    <path id="Path_180" data-name="Path 180" d="M40,0A40,40,0,1,1,0,40,40,40,0,0,1,40,0Z" transform="translate(1332 3399)" fill="#f1f1f1"/>
    <g id="Icon_material-local-see" data-name="Icon material-local-see" transform="translate(1351.016 3420.251)">
      <path id="Path_109" data-name="Path 109" d="M26.533,19.866A6.666,6.666,0,1,1,19.866,13.2,6.666,6.666,0,0,1,26.533,19.866Z" transform="translate(0.966 0.966)" fill="#aeaeae"/>
      <path id="Path_110" data-name="Path 110" d="M17.583,3,13.77,7.166h-6.6A4.179,4.179,0,0,0,3,11.333v25A4.179,4.179,0,0,0,7.166,40.5H40.5a4.179,4.179,0,0,0,4.167-4.167v-25A4.179,4.179,0,0,0,40.5,7.166h-6.6L30.082,3Zm6.25,31.249A10.416,10.416,0,1,1,34.249,23.832,10.42,10.42,0,0,1,23.832,34.249Z" transform="translate(-3 -3)" fill="#aeaeae"/>
    </g>
  </g>
</svg>
