<svg xmlns="http://www.w3.org/2000/svg" width="80" height="80" viewBox="0 0 80 80">
  <g id="Group_871" data-name="Group 871" transform="translate(-918 -2727)">
    <circle id="Ellipse_1" data-name="Ellipse 1" cx="40" cy="40" r="40" transform="translate(918 2727)" fill="#f1f1f1"/>
    <path id="Icon_awesome-money-check" data-name="Icon awesome-money-check" d="M0,32.086a2.3,2.3,0,0,0,2.3,2.3H43.607a2.3,2.3,0,0,0,2.3-2.3V9.135H0ZM32.131,17.168a1.147,1.147,0,0,1,1.148-1.148h6.885a1.147,1.147,0,0,1,1.148,1.148v2.3a1.147,1.147,0,0,1-1.148,1.148H33.279a1.147,1.147,0,0,1-1.148-1.148Zm0,8.607A.574.574,0,0,1,32.7,25.2h8.033a.574.574,0,0,1,.574.574v1.148a.574.574,0,0,1-.574.574H32.7a.574.574,0,0,1-.574-.574ZM4.59,18.889a.574.574,0,0,1,.574-.574h21.8a.574.574,0,0,1,.574.574v1.148a.574.574,0,0,1-.574.574H5.164a.574.574,0,0,1-.574-.574Zm0,6.885a.574.574,0,0,1,.574-.574H17.787a.574.574,0,0,1,.574.574v1.148a.574.574,0,0,1-.574.574H5.164a.574.574,0,0,1-.574-.574ZM44.754,2.25H1.148A1.147,1.147,0,0,0,0,3.4V6.84H45.9V3.4A1.147,1.147,0,0,0,44.754,2.25Z" transform="translate(935.049 2748.684)" fill="#aeaeae"/>
  </g>
</svg>
