<svg xmlns="http://www.w3.org/2000/svg" width="80" height="80" viewBox="0 0 80 80">
  <g id="Group_874" data-name="Group 874" transform="translate(-918 -3399)">
    <circle id="Ellipse_3" data-name="Ellipse 3" cx="40" cy="40" r="40" transform="translate(918 3399)" fill="#f1f1f1"/>
    <path id="Icon_material-supervisor-account" data-name="Icon material-supervisor-account" d="M36.867,23.85a5.839,5.839,0,1,0-5.839-5.839A5.821,5.821,0,0,0,36.867,23.85ZM19.35,21.514a7.007,7.007,0,1,0-7.007-7.007A6.978,6.978,0,0,0,19.35,21.514Zm17.518,7.007c-4.274,0-12.846,2.149-12.846,6.423V40.2H49.713V34.944C49.713,30.67,41.141,28.521,36.867,28.521ZM19.35,26.185C13.908,26.185,3,28.918,3,34.36V40.2H19.35V34.944c0-1.985.771-5.465,5.536-8.1A28.689,28.689,0,0,0,19.35,26.185Z" transform="translate(931.643 3412.751)" fill="#aeaeae"/>
  </g>
</svg>
