<svg xmlns="http://www.w3.org/2000/svg" width="80" height="80" viewBox="0 0 80 80">
  <g id="Group_872" data-name="Group 872" transform="translate(-1332 -2727)">
    <path id="Path_868" data-name="Path 868" d="M40,0A40,40,0,1,1,0,40,40,40,0,0,1,40,0Z" transform="translate(1332 2727)" fill="#f1f1f1"/>
    <path id="Icon_ionic-ios-time" data-name="Icon ionic-ios-time" d="M30.154,3.375A26.779,26.779,0,1,0,56.932,30.154,26.775,26.775,0,0,0,30.154,3.375Zm1.8,29.1a1.808,1.808,0,0,1-1.8,1.8H17.794a1.8,1.8,0,0,1,0-3.6H28.351V13.674a1.8,1.8,0,0,1,3.6,0Z" transform="translate(1341.846 2736.846)" fill="#aeaeae"/>
  </g>
</svg>
