<svg xmlns="http://www.w3.org/2000/svg" width="59.452" height="52.845" viewBox="0 0 59.452 52.845">
  <path id="Icon_awesome-hand-holding-heart" data-name="Icon awesome-hand-holding-heart" d="M28.413,25.855a1.8,1.8,0,0,0,2.632,0L42.285,14.068a8.555,8.555,0,0,0-.578-12.261A7.845,7.845,0,0,0,30.88,2.6L29.724,3.809l-1.146-1.2a7.836,7.836,0,0,0-10.827-.805,8.564,8.564,0,0,0-.578,12.261Zm29.931,8.009a3.416,3.416,0,0,0-4.4,0l-9.537,7.627a6.571,6.571,0,0,1-4.128,1.445H28.073a1.651,1.651,0,1,1,0-3.3h8.081a3.436,3.436,0,0,0,3.437-2.745,3.307,3.307,0,0,0-3.261-3.86H19.816a12.147,12.147,0,0,0-7.648,2.714l-4.8,3.891H1.651A1.656,1.656,0,0,0,0,41.284v9.908a1.656,1.656,0,0,0,1.651,1.651H38.476A6.613,6.613,0,0,0,42.6,51.4L58.21,38.911A3.3,3.3,0,0,0,58.344,33.864Z" transform="translate(0 0.002)" fill="#fff"/>
</svg>
