<svg xmlns="http://www.w3.org/2000/svg" width="355.304" height="42.669" viewBox="0 0 355.304 42.669">
  <g id="sign" transform="translate(-329.859 -300.187)">
    <path id="Path_567" data-name="Path 567" d="M331.715,310.678c-.5,0-.649.325-.5.7l2.623,7.038c.9,2.421.949,3.247-.15,3.57l-3.622-11.209c-.5-1.547-.148-2,1.574-2h26.437l6.64-7.964,1.773-.547c.774-.252,1.024.123.674.547l-6.615,7.964h24.614c0,1.174-1.349,1.873-3.969,1.873l-22.218.025-18.848,22.591-1.8.552c-.747.248-1.024-.127-.674-.552l18.85-22.591H331.715Z" transform="translate(0 0)" fill="#0089cf"/>
    <path id="Path_568" data-name="Path 568" d="M365.5,312.884l-2.248.649c-4.417,1.274-5.041-.649-4.094-1.973-2.246.25-5.841,1.324-10.584,3.795-.724.375-1.149.1-.7-.45l2.448-2.968-6.49,1.746a1.5,1.5,0,0,1,1.222-1.349l8.264-2.346c.8-.225,1.022.125.672.549l-1.9,2.221a25.4,25.4,0,0,1,10.037-2.745s.622.822.2,1.1c-1.821,1.224-1.072,2,1.649,1.224l2.721-.774A1.478,1.478,0,0,1,365.5,312.884Z" transform="translate(15.113 10.524)" fill="#0089cf"/>
    <path id="Path_569" data-name="Path 569" d="M352.953,313.711a1.5,1.5,0,0,1,1.222-1.349l8.289-2.346c.774-.225,1.024.125.674.525l-1.973,2.421c-.4.5-.275.6.275.5a126.917,126.917,0,0,0,12.333-3.445c.922-.3,1.124-.027.674.525L372,313.511l6.863-1.9a1.5,1.5,0,0,1-1.222,1.347l-8.638,2.5c-.774.227-1.024-.123-.674-.547l2.448-2.922a99.587,99.587,0,0,1-12.183,3.372c-1.646.325-1.946.023-1.174-.924l2.048-2.471Z" transform="translate(24.976 10.497)" fill="#0089cf"/>
    <path id="Path_570" data-name="Path 570" d="M386.417,313.1l-3.77,1.1c-2.348.7-3.245.4-3.745.025a25.25,25.25,0,0,1-8.014,1.5c-1.474,0-3-.1-3.17-.974-.2-.972,1.921-2.4,2.945-2.893l-7.14,2.021a1.625,1.625,0,0,1,1.249-1.349,82.392,82.392,0,0,1,8.538-2.071c7.614-1.424,9.66-.45,9.66.724,0,.8-.924,1.474-1.821,2.071,0,0,.175.225,1.372-.073,1.7-.452,5.093-1.4,5.093-1.4A1.5,1.5,0,0,1,386.417,313.1Zm-7.989-2.171c-3.22,0-7.464,1.971-7.164,3.1.1.35.674.45,1.6.45a16.087,16.087,0,0,0,5.268-1.1s-.4-.425-.4-.722c0-.327.547-.477,2.221-.8a.587.587,0,0,0,.175-.377C380.126,311.1,379.3,310.927,378.428,310.927Z" transform="translate(36.409 10.336)" fill="#0089cf"/>
    <path id="Path_571" data-name="Path 571" d="M397.911,312.934l-8.663,2.5c-.774.227-1.024-.123-.674-.525l1.971-2.421c.4-.5.275-.622-.273-.5-2.8.6-6.217,1.5-12.333,3.445-.924.3-1.124.025-.674-.525l2.446-2.968-6.49,1.746a1.5,1.5,0,0,1,1.224-1.349l8.262-2.346c.774-.225,1.024.125.674.549l-2.446,2.92a98.792,98.792,0,0,1,12.183-3.37c1.647-.325,1.946-.025,1.172.922l-2.046,2.473,6.89-1.9A1.5,1.5,0,0,1,397.911,312.934Z" transform="translate(46.895 10.524)" fill="#0089cf"/>
    <path id="Path_572" data-name="Path 572" d="M408.841,312.92a55.059,55.059,0,0,0-7.065,2.248c-5.266,6.365-10.235,12.156-12.833,14.879-1.547,1.621-2.471,2.3-3.02,2.3s-1.1-.425-.722-1.671c2.046-6.542,9.485-13.032,13.929-15.305l2.746-3.418-12.606,3.493c-.649.2-1.174,0-1.174-.525,0-.622.5-1.971,2.521-3.17a39.987,39.987,0,0,1-3.919,1.2l-2.845.749a1.5,1.5,0,0,1,1.222-1.349l1.524-.45c6.215-1.748,7.739-1.971,10.16-1.971,2.548,0,3.47.8,3.82,1.249l4.319-1.2c.7-.173,1.149,0,.724.525l-2.646,3.222a55.4,55.4,0,0,1,7.09-2.121A1.463,1.463,0,0,1,408.841,312.92Zm-22.018,16.75c-.1.25-.025.327.15.1,0,0,.924-1.024,2.473-2.9,1.921-2.323,8.012-9.487,8.012-9.487C393.163,320.012,388.346,325.676,386.822,329.67Zm9.935-18.7c-2.721,0-4.817,1.4-5.141,2.3-.125.325-.025.425,1.1.125l6.592-1.848C398.931,311.249,398.431,310.974,396.757,310.974Z" transform="translate(58.393 10.513)" fill="#0089cf"/>
    <path id="Path_573" data-name="Path 573" d="M418,321.687l-9.912,11.931c-1.1,1.349-2.1,1.249-2.471-.025l-3.42-11.032c-.475-1.551-.15-2,1.6-2h12.68l16.4-19.747,1.8-.547c.747-.252,1.022.123.672.547l-16.427,19.747h21.671l6.767-8.139,1.773-.55c.747-.225,1.022.125.672.55l-11.384,13.782,14.654-4.094a1.5,1.5,0,0,1-1.224,1.347L435.4,328.152c-.774.223-1.024-.125-.674-.55l4.921-5.916Zm-14.454,0c-.5,0-.649.225-.5.6l3.645,8.636c.225.525.674.624,1.047.175l7.791-9.41Z" transform="translate(78.017 0)" fill="#0089cf"/>
    <path id="Path_574" data-name="Path 574" d="M449.568,312.917l-8.638,2.5c-.772.223-1.122,0-.7-.525l2.421-2.945-12.233,3.37c-1.124.3-1.547.123-1.547-.4,0-.622.5-1.971,2.521-3.17a39.731,39.731,0,0,1-3.919,1.2l-2.845.749a1.5,1.5,0,0,1,1.224-1.349l1.522-.45c6.217-1.748,7.739-1.971,10.16-1.971,2.548,0,3.47.8,3.82,1.249l4.319-1.2c.7-.2,1.049.127.7.552l-2.471,2.97,6.888-1.9A1.481,1.481,0,0,1,449.568,312.917Zm-12.033-1.946c-2.723,0-4.769,1.324-5.091,2.221-.127.325-.025.4,1.1.125,4.719-1.2,6.467-1.821,6.467-1.821A3.769,3.769,0,0,0,437.534,310.971Z" transform="translate(102.494 10.516)" fill="#0089cf"/>
    <path id="Path_575" data-name="Path 575" d="M448.666,316.376l-8.663,2.5c-.8.25-1.124.048-.674-.5l2.446-2.968-6.49,1.746a1.5,1.5,0,0,1,1.224-1.349l8.264-2.346c.772-.225,1.022.125.672.549L443,316.976l6.89-1.921A1.481,1.481,0,0,1,448.666,316.376Zm1.9-7.964-4.069-.3c-1.447-.075,0-.751,0-.751l5.068-.647c.547-.052.547.425,0,.9Z" transform="translate(114.018 7.057)" fill="#0089cf"/>
    <path id="Path_576" data-name="Path 576" d="M489.613,325.993c.275.4.475.373.772,0L501.8,312.311c.572-.7,0-.7,0-1.274,0-.649,1.322-1.147,3.17-2.221.672-.4,1.022.125.672.549l-15.051,18.1a1.671,1.671,0,0,1-2.723,0l-13.282-20.2-20.644,26.287c-1.1,1.374-2.073,1.249-2.471-.023L448.045,322.5c-.472-1.549-.148-2,1.6-2h12.683l11.684-14.081-3.57-5.391.672-.6a1.638,1.638,0,0,1,1.923.3ZM449.4,321.624c-.5,0-.652.223-.5.6l3.645,8.638c.223.525.674.624,1.047.175l7.789-9.41Z" transform="translate(127.606 0.038)" fill="#0089cf"/>
    <path id="Path_577" data-name="Path 577" d="M494.764,312.917l-8.64,2.5c-.772.223-1.122,0-.7-.525l2.421-2.945-12.181,3.37c-1.149.323-1.6.123-1.6-.4,0-1.9,3.57-4.992,8.663-4.992,2.546,0,3.47.8,3.817,1.249l4.321-1.2c.7-.2,1.049.127.7.552l-2.473,2.97,6.892-1.9A1.481,1.481,0,0,1,494.764,312.917Zm-12.033-1.946c-2.721,0-4.771,1.324-5.093,2.221-.125.325-.025.4,1.1.125,4.717-1.2,6.465-1.821,6.465-1.821A3.76,3.76,0,0,0,482.73,310.971Z" transform="translate(155.962 10.516)" fill="#0089cf"/>
    <path id="Path_578" data-name="Path 578" d="M513.864,310.089c1.648-.325,1.948-.025,1.174.922l-2.048,2.473,6.892-1.9a1.5,1.5,0,0,1-1.224,1.347l-8.663,2.5c-.772.227-1.024-.123-.674-.525l1.973-2.421c.4-.5.275-.622-.275-.5a127.571,127.571,0,0,0-12.308,3.445c-.772.252-1.022-.123-.672-.525l1.971-2.421c.4-.5.275-.622-.275-.5-2.8.6-6.215,1.5-12.333,3.445-.922.3-1.124.025-.674-.525l2.448-2.968-6.49,1.746a1.5,1.5,0,0,1,1.222-1.349l8.264-2.346c.772-.225,1.022.125.672.549l-2.444,2.92a98.57,98.57,0,0,1,12.181-3.37c1.646-.325,1.948-.025,1.174.922l-2.048,2.473A98.322,98.322,0,0,1,513.864,310.089Z" transform="translate(165.282 10.524)" fill="#0089cf"/>
  </g>
</svg>
