<svg xmlns="http://www.w3.org/2000/svg" width="27.3" height="20.4" viewBox="0 0 27.3 20.4">
  <path id="Path_554" data-name="Path 554" d="M23.58-11.16a5.663,5.663,0,0,0-4.14,1.59A5.582,5.582,0,0,0,17.82-5.4a9.863,9.863,0,0,0,.3,2.4A27.1,27.1,0,0,0,19.44.6l3.42,8.64H28.8L26.16-.3a4.931,4.931,0,0,0,2.37-1.95A5.686,5.686,0,0,0,29.4-5.4a5.528,5.528,0,0,0-1.65-4.17A5.766,5.766,0,0,0,23.58-11.16Zm-15.72,0A5.663,5.663,0,0,0,3.72-9.57,5.582,5.582,0,0,0,2.1-5.4,9.863,9.863,0,0,0,2.4-3,27.1,27.1,0,0,0,3.72.6L7.14,9.24h5.94L10.44-.3a4.931,4.931,0,0,0,2.37-1.95,5.686,5.686,0,0,0,.87-3.15,5.528,5.528,0,0,0-1.65-4.17A5.766,5.766,0,0,0,7.86-11.16Z" transform="translate(-2.1 11.16)" fill="#ffa30b"/>
</svg>
