<svg id="Group_566" data-name="Group 566" xmlns="http://www.w3.org/2000/svg" width="64.347" height="59.268" viewBox="0 0 64.347 59.268">
  <path id="Union_2" data-name="Union 2" d="M26.771,58.418l-11.743-6.78H3.176A3.179,3.179,0,0,1,0,48.463L0,32.578A3.168,3.168,0,0,1,3.178,29.4h9.169L14.7,25.335a6.336,6.336,0,0,1,5.393-3.168l7.514-.132L21.567,32.489a7.147,7.147,0,0,0,12.38,7.147l2.779-4.814,13.066,7.544a2.376,2.376,0,0,1,.872,3.254l-2.382,4.126a2.376,2.376,0,0,1-3.254.872l-.688-.4-3.176,5.5a3.174,3.174,0,0,1-4.339,1.163l-1.375-.794a6.355,6.355,0,0,1-8.678,2.325ZM53.415,47.209a5.562,5.562,0,0,0-2.034-7.593L35.563,30.483,31.2,38.048a3.97,3.97,0,1,1-6.877-3.971L30.587,23.22a3.159,3.159,0,0,1,2.635-1.585l3.917-.134a6.4,6.4,0,0,1,3.4.849l8.785,5.072H61.172A3.177,3.177,0,0,1,64.347,30.6l0,15.885a3.18,3.18,0,0,1-3.174,3.176H52ZM40.329,17.378a1.642,1.642,0,0,1-.483-2.271l6.364-9.8A1.642,1.642,0,1,1,48.963,7.1l-6.363,9.8a1.642,1.642,0,0,1-2.272.483Zm-9.8-4.052V1.641a1.642,1.642,0,0,1,3.284,0V13.325a1.642,1.642,0,1,1-3.284,0Z" transform="translate(0)" fill="#fff"/>
  <path id="Path_552" data-name="Path 552" d="M0,11.684V0" transform="matrix(-0.839, 0.545, -0.545, -0.839, 23.121, 16.001)" fill="#fff"/>
  <path id="Path_552_-_Outline" data-name="Path 552 - Outline" d="M1.642,14.968A1.642,1.642,0,0,1,0,13.326V1.642a1.642,1.642,0,1,1,3.284,0V13.326A1.642,1.642,0,0,1,1.642,14.968Z" transform="matrix(-0.839, 0.545, -0.545, -0.839, 25.392, 16.483)" fill="#fff"/>
</svg>
