<svg xmlns="http://www.w3.org/2000/svg" width="27.3" height="20.4" viewBox="0 0 27.3 20.4">
  <path id="Path_553" data-name="Path 553" d="M7.92-11.16a5.663,5.663,0,0,1,4.14,1.59A5.582,5.582,0,0,1,13.68-5.4a9.863,9.863,0,0,1-.3,2.4A27.1,27.1,0,0,1,12.06.6L8.64,9.24H2.7L5.34-.3A4.931,4.931,0,0,1,2.97-2.25,5.686,5.686,0,0,1,2.1-5.4,5.528,5.528,0,0,1,3.75-9.57,5.767,5.767,0,0,1,7.92-11.16Zm15.72,0a5.663,5.663,0,0,1,4.14,1.59A5.582,5.582,0,0,1,29.4-5.4,9.863,9.863,0,0,1,29.1-3,27.1,27.1,0,0,1,27.78.6L24.36,9.24H18.42L21.06-.3a4.931,4.931,0,0,1-2.37-1.95,5.686,5.686,0,0,1-.87-3.15,5.528,5.528,0,0,1,1.65-4.17A5.767,5.767,0,0,1,23.64-11.16Z" transform="translate(-2.1 11.16)" fill="#ffa30b"/>
</svg>
